<svg xmlns="http://www.w3.org/2000/svg" width="125.253mm" height="33.566mm" viewBox="0 0 355.048 95.147"><g id="レイヤー_2" data-name="レイヤー 2"><g id="レイヤー_4" data-name="レイヤー 4"><path d="M52.208,28.114q-.673,14.562-8.125,23.857a16.641,16.641,0,0,1-4.445,3.752,10.478,10.478,0,0,1-4.174,1.736q10.728,8.232,14.544,14.672a10.553,10.553,0,0,1,1.661,5.208q0,3.306-3.411,8.793a4.339,4.339,0,0,1,.448,1.847q0,6.888-20.425,6.888-4.264,0-9.225-.363t-5.274-2.773a14.79,14.79,0,0,1,.718-6.047q.494-1.85,1.8-1.849-.539,0,2.963.56,1.032.169,2.133,2.38a4.564,4.564,0,0,0,3.793,2.548,30.153,30.153,0,0,0,3.9.225q9.606,0,14.814-2.969a4.709,4.709,0,0,0,2.6-4.368q0-3.414-3.053-7.448A67.384,67.384,0,0,0,35.6,66.811q-6.42-5.768-8.888-6.72-4.49,0-4.489-2.072,0-.727,3.95-4.592a2.739,2.739,0,0,1,1.841-.9,3.768,3.768,0,0,1,2.11.9q1.077.727,2.109,1.511,4.4-.278,8.305-6.1a39.636,39.636,0,0,0,4.086-9.185,37.843,37.843,0,0,0,2.244-11.536q0-3.192-1.526-4.032a6.868,6.868,0,0,0-3.636-.336,36.578,36.578,0,0,0-5.971,1.4,34.456,34.456,0,0,0-7.093,2.745q-3.861,17.36-10.01,37.744Q13.064,84.172,11,88.092a12.024,12.024,0,0,1-1.975,3.023,11.929,11.929,0,0,1-3.995,1.456q-2.155.5-2.155-.391A4.756,4.756,0,0,1,3.1,90.947q2.558-8.958,2.558-13.216,0-2.8.4-3.192.18-.168,3.771-1.736,1.212-.5,1.527,1.288a226.543,226.543,0,0,0,7.766-24.248q3.231-12.1,4.309-18.985Q11.447,37.242,7.048,44.243a7.717,7.717,0,0,0-1.122,4.088,28.168,28.168,0,0,0,.673,4.76,7.9,7.9,0,0,1,.135,1.288q0,1.065-.584,1.064-.764,0-1.661-1.288Q0,47.548,0,44.186A7.65,7.65,0,0,1,1.526,40.6Q4.49,36.18,11.761,30.467A64.335,64.335,0,0,1,24.78,22.234a25.7,25.7,0,0,0,.314-4.7q-.27-1.568.763-1.568.494,0,1.167.784Q29,19.212,28.73,20.274q9.831-3.528,13.512-3.416a5.875,5.875,0,0,1,4.31,1.905,22.169,22.169,0,0,1,2.6,4.872,2.454,2.454,0,0,1,2.2.84A5.442,5.442,0,0,1,52.208,28.114Z" fill="#231815"/><path d="M89.806,6.442a1.634,1.634,0,0,1,.584,1.176.927.927,0,0,1-1.032,1.065,1.69,1.69,0,0,1-.943-.337,6.87,6.87,0,0,0-3.1-1.287q-2.827,0-6.195,6.832Q66.912,38.7,61.75,78.012q-.135,1.064-.449,2.855,1.032-1.343,3.052-4.368,1.167-1.734,1.706-1.736,1.167,0,.18,1.736a48.94,48.94,0,0,0-5.7,16.072q-.495,2.072-1.257,2.073a1.662,1.662,0,0,1-.943-.5q-2.289-1.9-2.6-2.241a4.506,4.506,0,0,1-.9-2.912,13.024,13.024,0,0,1,.224-2.183q5.206-35.673,13.422-60.762Q74.678,7.115,79.571,1.514A3.5,3.5,0,0,1,82.265,0q1.212.057,3.142,1.9Q87.606,4.146,89.806,6.442Z" fill="#231815"/><path d="M81.347,55.274q-1.077,7.561-5.611,25.145A37.461,37.461,0,0,0,79.327,75.1q.314-.505.629-.5.717,0,.179,1.568-.225.617-3.771,7.672a61.934,61.934,0,0,0-3.95,9.52q-.4,1.288-1.482,1.289a5.749,5.749,0,0,1-2.917-1.289q-1.168-.783-1.167-1.175a5.026,5.026,0,0,1,.493-1.456q2.424-5.32,5.387-17.809,2.829-12.1,3.188-17.977.133-2.519-.4-2.519-.405,0-1.437,1.231L71.292,56.9q-1.482,1.681-1.482.169a2.324,2.324,0,0,1,.4-1.12,78.954,78.954,0,0,1,4.489-7q.719-.953,1.392-.952a3.979,3.979,0,0,1,2.11,1.232,15.951,15.951,0,0,1,2.289.839,3.47,3.47,0,0,1,1.033,2.912A16.935,16.935,0,0,1,81.347,55.274Zm6.33-24.528a2.033,2.033,0,0,1,.718,1.513q0,1.624-3.861,5.04-2.558,2.184-4.937,1.567a5.328,5.328,0,0,1-2.335-1.231,2.457,2.457,0,0,1-.471-.7.777.777,0,0,1-.068-.588q.135-.224.539-.113A62.854,62.854,0,0,0,82.694,29.8q1.032-1.456,1.481-1.456Q84.983,28.339,87.677,30.746Z" fill="#231815"/><path d="M117.464,73.419q-2.692,5.1-7,14.784-.807,2.522-1.571,5.04-.628,1.736-1.661,1.736a5.767,5.767,0,0,1-2.379-.839q-1.75-.9-1.751-1.792a6.147,6.147,0,0,1,.584-1.737,114.187,114.187,0,0,0,5.207-18.424q2.469-11.592,2.11-17.7-.09-2.463-.9-2.465-.584,0-1.751,1.4Q97.04,67.2,88.779,90.275q-1.033,2.858-2.424,2.857a7.792,7.792,0,0,1-3.277-1.4c-.6-.336-.913-.652-.943-.952a8.658,8.658,0,0,1,.494-1.568,159.907,159.907,0,0,0,5.163-18.032,115.526,115.526,0,0,0,3.1-18.424q.088-2.016-.09-2.016-.045,0-1.257,1.512t-3.366,3.92a1.153,1.153,0,0,1-.9.5.55.55,0,0,1-.629-.616,1.694,1.694,0,0,1,.449-1.008q1.931-3.08,5.073-7.672a1.818,1.818,0,0,1,1.392-.952q1.077,0,1.885,1.96,3.636,1.344,3.411,4.144-.493,6.16-5.072,22.232a105.516,105.516,0,0,1,8.753-16.157q5.746-8.931,8.53-10.555a4.981,4.981,0,0,1,1.975-.784q.584,0,1.885,1.232a5.457,5.457,0,0,1,3.681,5.376,82.431,82.431,0,0,1-1.526,12.6q-1.212,7.169-2.245,11.144,1.3-2.072,3.323-5.376.359-.559.718-.559.672,0,.673,1.063A2.588,2.588,0,0,1,117.464,73.419Z" fill="#231815"/><path d="M174.635,6.442a1.506,1.506,0,0,1,.539,1.12A.946.946,0,0,1,174.1,8.626a1.617,1.617,0,0,1-.853-.28A7.114,7.114,0,0,0,170.1,7.059q-2.782,0-6.15,6.832-12.345,25.143-18,66.976,1.167-1.4,3.143-4.368,1.166-1.734,1.706-1.736,1.21,0,.224,1.736a46.645,46.645,0,0,0-5.7,16.072q-.538,2.072-1.347,2.073a1.668,1.668,0,0,1-.987-.5,33.568,33.568,0,0,1-2.514-2.241,4.281,4.281,0,0,1-.9-2.856A13.244,13.244,0,0,1,139.8,86.8q1.929-12.936,3.188-19.265A176.981,176.981,0,0,1,133.044,83.3q-5.544,7.868-8.058,9.939-1.931,1.624-2.873,1.624-.807,0-2.469-1.624a6.477,6.477,0,0,1-2.918-5.208,7.81,7.81,0,0,1,.09-1.12q.943-8.344,5.993-19.348a77.212,77.212,0,0,1,11.559-18.508q2.111-2.465,3.771-2.409,1.75.114,6.24,5.321a1.406,1.406,0,0,1,.4.952q0,.9-.943.9a1.582,1.582,0,0,1-.673-.169q-3.143-1.678-5.118.113-4.22,3.921-9.292,13.608-5.882,11.2-6.913,20.16-.225,2.129.9,2.128,1.48,0,3.636-2.632a148.913,148.913,0,0,0,10.729-15.343q5.88-9.577,7.541-14.449a43.831,43.831,0,0,0,1.482-5.152,245.858,245.858,0,0,1,10.414-35.225q4.489-11.424,7.9-15.344A3.387,3.387,0,0,1,166.869,0q1.257,0,3.232,1.848Q172.347,4.147,174.635,6.442Z" fill="#231815"/><path d="M229.048,21.9a5.078,5.078,0,0,1,.091.9,2.145,2.145,0,0,1-1.572,2.184q-.09.057-3.186.617-6.961,1.232-17.1,2.3-2.649,7.056-7.631,28.9,8.485-.952,17.194-1.176a3.271,3.271,0,0,1,3.456,2.072,31.724,31.724,0,0,1,.673,3.7,4.15,4.15,0,0,1,.091.784q0,1.905-3.5,2.632a14.924,14.924,0,0,1-3.007.5,1.535,1.535,0,0,1-1.3-1.064,2.351,2.351,0,0,0-2.38-1.512,111.6,111.6,0,0,0-12.795.448q-1.615,5.152-5.7,27.776-.763,4.2-2.2,4.2a13.31,13.31,0,0,1-3.86-1.232q-1.75-.728-1.3-4.928a102.664,102.664,0,0,1,1.751-10.416q.538-2.352,3.681-1.624a89.522,89.522,0,0,0,2.469-9.3q-1.886-6.048-1.886-6.216a5.057,5.057,0,0,1,.045-.672q.27-1.848,4.445-2.968.224-.953,7.361-29.233a72.551,72.551,0,0,0-13.871,2.689q-7.675,2.239-10.145,4.983a8.859,8.859,0,0,0-2.6,5.88q0,3.194,2.963,10.081a3.156,3.156,0,0,1,.314,1.344q0,1.4-1.032,1.4c-.479,0-.913-.353-1.3-1.063a55.2,55.2,0,0,1-4.624-9.856,32.906,32.906,0,0,1-1.077-7.113q-.45-6.888,8.933-10.08a116.7,116.7,0,0,1,25.005-5.6q1.434-3.64,2.154-3.641,1.034,0,3.546,2.8a67.174,67.174,0,0,0,7.272-1.12,4.017,4.017,0,0,0,2.155-1.96q.989-1.624,4.714-1.849a2.643,2.643,0,0,1,2.827,1.9Q228.2,17.644,229.048,21.9Z" fill="#231815"/><path d="M250.936,56.059a210.637,210.637,0,0,0-5.7,23.968,27.793,27.793,0,0,0,1.773-2.408,22.3,22.3,0,0,1,1.37-1.9q.627-1.008,1.347-1.008.672,0,.673.84a2.587,2.587,0,0,1-.359,1.177,51.568,51.568,0,0,0-5.612,15.735q-.4,2.239-1.211,2.24-.765,0-2.829-1.792A3.981,3.981,0,0,1,239,91.227a6.341,6.341,0,0,1,0-2.463,154.483,154.483,0,0,1,4.713-23.633A135.262,135.262,0,0,1,233.069,82.6q-5.881,8.346-8.485,10.64-1.884,1.624-2.873,1.624-.807,0-2.469-1.624a5.829,5.829,0,0,1-2.379-4.928,12.667,12.667,0,0,1,.09-1.4q.808-8.286,5.836-19.292a77.87,77.87,0,0,1,11.537-18.564q2.111-2.465,3.771-2.409,1.617.114,6.149,5.321a1.4,1.4,0,0,1,.405.952q0,.9-.943.9a1.392,1.392,0,0,1-.673-.169q-3.189-1.678-5.118.113-4.219,3.864-9.337,13.608-5.925,11.2-7.138,20.16a6.41,6.41,0,0,0-.044.729q0,1.4.9,1.4,1.526,0,3.637-2.632a144.239,144.239,0,0,0,10.774-15.343q5.879-9.577,7.54-14.449,1.213-3.584,1.572-5.04.583-2.52,1.257-2.52t3.142,2.3a3.079,3.079,0,0,1,1.123,1.736A6.781,6.781,0,0,1,250.936,56.059Z" fill="#231815"/><path d="M288.49,6.442a1.637,1.637,0,0,1,.583,1.176.927.927,0,0,1-1.032,1.065,1.69,1.69,0,0,1-.943-.337A6.87,6.87,0,0,0,284,7.059q-2.827,0-6.194,6.832Q265.595,38.7,260.433,78.012q-.135,1.064-.449,2.855,1.032-1.343,3.052-4.368,1.168-1.734,1.706-1.736,1.167,0,.18,1.736a48.94,48.94,0,0,0-5.7,16.072q-.5,2.072-1.257,2.073a1.662,1.662,0,0,1-.943-.5q-2.289-1.9-2.6-2.241a4.507,4.507,0,0,1-.9-2.912,13.024,13.024,0,0,1,.224-2.183q5.206-35.673,13.423-60.762,6.2-18.927,11.087-24.528A3.5,3.5,0,0,1,280.948,0q1.212.057,3.142,1.9Q286.291,4.146,288.49,6.442Z" fill="#231815"/><path d="M291.792,52.083q0,8.68-1.931,14-.807,2.184-2.513,1.008-2.516-1.734-2.514-2.856a1.554,1.554,0,0,1,.583-1.064,28.268,28.268,0,0,0,1.392-8.344q-.09-2.521-2.02-2.52a2.5,2.5,0,0,1-.674-.14,2.576,2.576,0,0,0-.717-.141q-1.574,0-3.861,3.7a53.079,53.079,0,0,0-4.8,11.536,70.483,70.483,0,0,0-2.513,10.472,36.913,36.913,0,0,0-.494,5.712q0,8.568,4.354,8.4,3.815-.112,11.178-11.929.717-1.064,1.3-1.063t.584.895a3.694,3.694,0,0,1-.225,1.12,48.841,48.841,0,0,1-6.24,12.824,3.713,3.713,0,0,1-3.322,1.4,10.865,10.865,0,0,1-3.5-.729,9.167,9.167,0,0,1-6.6-3.3,11.951,11.951,0,0,1-2.469-8.345q.178-5.934,3.322-16.464,3.366-11.424,7.048-16.576,1.7-2.353,2.873-2.352t4.578,2.464a8.708,8.708,0,0,1,3.637-.84Q291.79,48.947,291.792,52.083Z" fill="#231815"/><path d="M320.457,57.907a69.684,69.684,0,0,1-1.93,13.216q-2.919,12.993-8.26,20.16-2.829,3.808-6.285,3.809a11.11,11.11,0,0,1-3.456-.729,9.887,9.887,0,0,1-6.869-3.3,11.483,11.483,0,0,1-2.693-8.345q.179-5.934,3.276-16.576,3.412-11.592,7.094-16.688,1.75-2.463,2.873-2.465,1.524,0,4.938,3.921.942-.559,3.86-2.072a6.546,6.546,0,0,1,2.245-.616q1.75,0,3.9,4.088A10.728,10.728,0,0,1,320.457,57.907Zm-5.163,1.624q.313-3.751.315-4.761,0-2.351-1.167-2.351a4.127,4.127,0,0,0-1.167.224l-6.959,3.528a6.765,6.765,0,0,1-1.391.616q-.36,0-.718-1.064a45.038,45.038,0,0,0-4.848,11.48,75.14,75.14,0,0,0-2.425,10.528,37.037,37.037,0,0,0-.494,5.712q0,8.625,4.265,8.4a6.312,6.312,0,0,0,3.681-1.681q3.771-3.192,7.048-12.768A71.854,71.854,0,0,0,315.294,59.531Z" fill="#231815"/><path d="M354.958,73.419q-2.693,5.1-7,14.784-.807,2.522-1.571,5.04-.629,1.736-1.66,1.736a5.761,5.761,0,0,1-2.38-.839q-1.75-.9-1.75-1.792a6.167,6.167,0,0,1,.583-1.737,114.187,114.187,0,0,0,5.207-18.424q2.469-11.592,2.111-17.7-.091-2.463-.9-2.465-.585,0-1.751,1.4Q334.533,67.2,326.273,90.275q-1.032,2.858-2.424,2.857a7.8,7.8,0,0,1-3.277-1.4c-.6-.336-.913-.652-.942-.952a8.567,8.567,0,0,1,.494-1.568,160.141,160.141,0,0,0,5.162-18.032,115.3,115.3,0,0,0,3.1-18.424q.09-2.016-.09-2.016-.045,0-1.256,1.512t-3.367,3.92a1.152,1.152,0,0,1-.9.5.55.55,0,0,1-.629-.616,1.691,1.691,0,0,1,.45-1.008q1.929-3.08,5.072-7.672a1.818,1.818,0,0,1,1.391-.952q1.079,0,1.886,1.96,3.636,1.344,3.412,4.144-.495,6.16-5.073,22.232a105.443,105.443,0,0,1,8.754-16.157q5.745-8.931,8.529-10.555a4.981,4.981,0,0,1,1.975-.784q.582,0,1.885,1.232a5.459,5.459,0,0,1,3.682,5.376,82.466,82.466,0,0,1-1.527,12.6q-1.212,7.169-2.244,11.144,1.3-2.072,3.321-5.376.36-.559.719-.559.673,0,.673,1.063A2.588,2.588,0,0,1,354.958,73.419Z" fill="#231815"/></g></g></svg>