<?xml version="1.0" encoding="UTF-8"?><svg xmlns="http://www.w3.org/2000/svg" viewBox="0 0 300 50"><defs><style>.d{fill:#fff;}</style></defs><g id="a"/><g id="b"><g id="c"><rect width="300" height="50"/><g><path class="d" d="M82.72,24.43c3.92,.67,7.27,3.84,7.27,8.65,0,5.31-3.84,9.95-11.33,9.95-3.35,0-6.38-1.07-7.89-2.14l1.11-2.85c1.2,.8,3.88,2.01,6.82,2.01,5.62,0,7.45-3.92,7.45-7,0-4.91-4.15-7.14-8.52-7.14h-2.19v-2.76h2.19c3.21,0,7.36-2.01,7.36-6.2,0-2.9-1.74-5.4-5.75-5.4-2.45,0-4.77,1.2-6.11,2.19l-1.12-2.72c1.61-1.25,4.73-2.5,7.94-2.5,6.11,0,8.83,3.88,8.83,7.89,0,3.43-2.19,6.51-6.07,7.89v.13Z"/><path class="d" d="M95.07,25.9c0-11.69,4.55-17.35,10.79-17.35s10.21,5.98,10.21,16.9c0,11.6-4.06,17.57-10.7,17.57-6.07,0-10.3-5.98-10.3-17.13Zm17.26-.27c0-8.34-2.01-14.09-6.69-14.09-3.97,0-6.78,5.31-6.78,14.09s2.45,14.36,6.65,14.36c4.95,0,6.82-6.42,6.82-14.36Z"/><path class="d" d="M119.64,25.9c0-11.69,4.55-17.35,10.79-17.35s10.21,5.98,10.21,16.9c0,11.6-4.06,17.57-10.71,17.57-6.07,0-10.3-5.98-10.3-17.13Zm17.26-.27c0-8.34-2.01-14.09-6.69-14.09-3.97,0-6.78,5.31-6.78,14.09s2.45,14.36,6.65,14.36c4.95,0,6.82-6.42,6.82-14.36Z"/><path class="d" d="M173.91,18.18l-8.03,11.77,8.25,12.53h-4.24l-3.66-5.66c-.89-1.47-1.69-2.81-2.59-4.37h-.09c-.76,1.52-1.65,2.85-2.59,4.37l-3.57,5.66h-4.1l8.34-12.4-7.94-11.91h4.15l3.52,5.4c.89,1.38,1.65,2.63,2.45,4.06h.13c.76-1.43,1.61-2.77,2.45-4.06l3.43-5.4h4.06Z"/><path class="d" d="M205.88,9.08v3.08h-12l-1.38,9.46c.71-.09,1.43-.18,2.59-.18,5.93,0,11.24,3.52,11.24,10.26s-4.91,11.33-11.51,11.33c-3.35,0-6.16-.98-7.67-1.96l1.07-2.9c1.25,.85,3.7,1.87,6.6,1.87,4.19,0,7.8-3.08,7.76-7.89,0-4.59-2.94-7.8-9.19-7.8-1.78,0-3.17,.13-4.28,.31l2.1-15.57h14.67Z"/><path class="d" d="M211.5,25.9c0-11.69,4.55-17.35,10.79-17.35s10.21,5.98,10.21,16.9c0,11.6-4.06,17.57-10.7,17.57-6.07,0-10.3-5.98-10.3-17.13Zm17.26-.27c0-8.34-2.01-14.09-6.69-14.09-3.97,0-6.78,5.31-6.78,14.09s2.45,14.36,6.65,14.36c4.95,0,6.82-6.42,6.82-14.36Z"/></g></g></g></svg>