<?xml version="1.0" encoding="UTF-8"?><svg xmlns="http://www.w3.org/2000/svg" viewBox="0 0 320 100"><defs><style>.d{fill:#fff;}</style></defs><g id="a"/><g id="b"><g id="c"><rect width="320" height="100"/><g><path class="d" d="M81,47.04c3.92,.67,7.27,3.84,7.27,8.65,0,5.31-3.84,9.95-11.33,9.95-3.35,0-6.38-1.07-7.89-2.14l1.11-2.85c1.2,.8,3.88,2.01,6.82,2.01,5.62,0,7.45-3.92,7.45-7,0-4.91-4.15-7.14-8.52-7.14h-2.19v-2.77h2.19c3.21,0,7.36-2.01,7.36-6.2,0-2.9-1.74-5.4-5.75-5.4-2.45,0-4.77,1.2-6.11,2.19l-1.12-2.72c1.61-1.25,4.73-2.5,7.94-2.5,6.11,0,8.83,3.88,8.83,7.89,0,3.43-2.19,6.51-6.07,7.89v.13Z"/><path class="d" d="M113.52,65.1h-19.76v-2.27l3.26-3.43c7.94-8.03,11.95-12.89,11.95-18.33,0-3.57-1.56-6.87-6.38-6.87-2.68,0-5.08,1.47-6.69,2.77l-1.25-2.59c2.05-1.83,5.08-3.26,8.65-3.26,6.73,0,9.41,4.91,9.41,9.5,0,6.29-4.42,11.64-11.33,18.6l-2.63,2.77v.09h14.76v3.03Z"/><path class="d" d="M117.93,48.51c0-11.69,4.55-17.35,10.79-17.35s10.21,5.98,10.21,16.9c0,11.6-4.06,17.57-10.7,17.57-6.07,0-10.3-5.98-10.3-17.13Zm17.26-.27c0-8.34-2.01-14.09-6.69-14.09-3.97,0-6.78,5.31-6.78,14.09s2.45,14.36,6.65,14.36c4.95,0,6.82-6.42,6.82-14.36Z"/><path class="d" d="M172.2,40.79l-8.03,11.77,8.25,12.53h-4.24l-3.66-5.66c-.89-1.47-1.69-2.81-2.59-4.37h-.09c-.76,1.52-1.65,2.85-2.59,4.37l-3.57,5.66h-4.1l8.34-12.4-7.94-11.91h4.15l3.52,5.4c.89,1.38,1.65,2.63,2.45,4.06h.13c.76-1.43,1.61-2.77,2.45-4.06l3.43-5.4h4.06Z"/><path class="d" d="M195.03,65.1v-29.93h-.09l-5.49,3.17-.89-2.77,6.91-3.88h3.17v33.41h-3.61Z"/><path class="d" d="M209.79,48.51c0-11.69,4.55-17.35,10.79-17.35s10.21,5.98,10.21,16.9c0,11.6-4.06,17.57-10.7,17.57-6.07,0-10.3-5.98-10.3-17.13Zm17.26-.27c0-8.34-2.01-14.09-6.69-14.09-3.97,0-6.78,5.31-6.78,14.09s2.45,14.36,6.65,14.36c4.95,0,6.82-6.42,6.82-14.36Z"/><path class="d" d="M234.36,48.51c0-11.69,4.55-17.35,10.79-17.35s10.21,5.98,10.21,16.9c0,11.6-4.06,17.57-10.7,17.57-6.07,0-10.3-5.98-10.3-17.13Zm17.26-.27c0-8.34-2.01-14.09-6.69-14.09-3.97,0-6.78,5.31-6.78,14.09s2.45,14.36,6.65,14.36c4.95,0,6.82-6.42,6.82-14.36Z"/></g></g></g></svg>