<?xml version="1.0" encoding="utf-8"?>
<!-- Generator: Adobe Illustrator 26.2.1, SVG Export Plug-In . SVG Version: 6.00 Build 0)  -->
<svg version="1.1" xmlns="http://www.w3.org/2000/svg" xmlns:xlink="http://www.w3.org/1999/xlink" x="0px" y="0px" width="1136px"
	 height="257px" viewBox="0 0 1136 257" enable-background="new 0 0 1136 257" xml:space="preserve">
<g id="レイヤー_1" display="none">
	<text transform="matrix(1 0 0 1 -4.1094 204.0127)" display="inline"><tspan x="0" y="0" fill="#FFFFFF" font-family="'MatisseProN-M-90ms-RKSJ-H'" font-size="190px" letter-spacing="7">記</tspan><tspan x="197.6" y="0" fill="#FFFFFF" font-family="'MatisseProN-M-90ms-RKSJ-H'" font-size="190px" letter-spacing="-57">録</tspan><tspan x="330.6" y="7.601" fill="#FFFFFF" font-family="'MatisseProN-M-90ms-RKSJ-H'" font-size="210px" letter-spacing="-75">：</tspan><tspan x="358" y="-15.88" fill="#FFFFFF" font-family="'RyuminPr6N-Light-90ms-RKSJ-H'" font-size="214px" letter-spacing="1">『</tspan><tspan x="573.712" y="14.44" fill="#FFFFFF" font-family="'SoukouMincho'" font-size="228px" letter-spacing="18">地</tspan><tspan x="819.952" y="14.44" fill="#FFFFFF" font-family="'SoukouMincho'" font-size="228px" letter-spacing="9">球</tspan><tspan x="1057.072" y="27.12" fill="#FFFFFF" font-family="'RyuminPr6N-Light-90ms-RKSJ-H'" font-size="214px" letter-spacing="-107">』</tspan></text>
</g>
<g id="レイヤー_3">
	<g>
		<path fill="#FFFFFF" d="M23.631,89.251c-5.32,0-11.59,0.38-13.87,0.95h-0.76c-0.76,0-1.14-0.19-1.71-1.14
			c-0.57-1.14-1.33-2.66-1.71-4.18c0-0.38-0.19-0.57-0.19-0.95s0.19-0.57,0.57-0.57c0.38,0,0.76,0.19,1.33,0.38
			c3.04,1.14,9.88,1.71,16.34,1.71h31.73c0.95,0,1.9-0.57,2.47-1.33c2.85-3.42,3.8-4.94,6.84-8.74c0.38-0.57,0.76-0.76,1.14-0.76
			s0.95,0.38,1.52,0.76c4.75,3.61,11.02,9.311,12.92,11.021c0.57,0.57,0.95,1.14,0.95,1.52c0,0.76-0.95,1.33-2.66,1.33H23.631z
			 M30.471,65.691c-5.32,0-11.59,0.38-13.87,0.95h-0.76c-0.76,0-1.14-0.19-1.71-1.14c-0.57-1.14-1.33-2.66-1.71-4.18
			c0-0.38-0.19-0.57-0.19-0.95c0-0.38,0.19-0.57,0.57-0.57s0.76,0.19,1.33,0.38c3.04,1.14,9.88,1.71,16.34,1.71h19
			c0.95,0,1.52,0,2.66-0.95c0.95-0.95,4.37-5.7,6.27-7.98c0.38-0.57,0.76-0.76,1.14-0.76s0.76,0.19,1.52,0.76
			c2.09,1.71,10.83,9.31,11.59,10.26c0.57,0.57,0.76,0.95,0.76,1.33c0,0.76-0.95,1.14-2.09,1.14H30.471z M30.471,113.381
			c-5.32,0-11.59,0.38-13.87,0.95h-0.76c-0.76,0-1.14-0.19-1.71-1.14c-0.57-1.14-1.33-2.66-1.71-4.18c0-0.38-0.19-0.57-0.19-0.95
			s0.19-0.57,0.57-0.57s0.76,0.19,1.33,0.38c3.04,1.14,9.88,1.71,16.34,1.71h20.9c0.95,0,1.521,0,2.66-0.95
			c0.95-0.95,3.99-4.75,5.89-7.03c0.38-0.57,0.76-0.76,1.14-0.76s0.76,0.19,1.52,0.76c2.09,1.71,10.26,7.79,11.97,9.31
			c0.57,0.38,0.76,0.76,0.76,1.14c0,0.76-0.95,1.33-2.09,1.33H30.471z M30.471,137.702c-5.32,0-11.59,0.38-13.87,0.95h-0.76
			c-0.76,0-1.14-0.19-1.71-1.14c-0.57-1.14-1.33-2.66-1.71-4.18c0-0.38-0.19-0.57-0.19-0.95s0.19-0.57,0.57-0.57
			s0.76,0.19,1.33,0.38c3.04,1.14,9.88,1.71,16.34,1.71h20.9c0.95,0,1.521,0,2.66-0.95c0.95-0.95,3.99-4.75,5.89-7.03
			c0.38-0.57,0.76-0.76,1.14-0.76s0.76,0.19,1.52,0.76c2.28,1.71,10.07,7.6,11.97,9.31c0.57,0.57,0.76,0.95,0.76,1.33
			c0,0.76-0.76,1.14-2.09,1.14H30.471z M68.472,205.912c0,3.99-1.71,5.131-6.46,5.131h-0.38c-3.8,0-5.13-1.141-5.13-5.131v-0.76
			c0-1.33,0-4.56,0.19-5.89H26.671v10.83c0,4.75-1.14,5.7-6.08,5.7h-0.76c-3.42,0-4.94-1.141-4.94-4.561v-1.14
			c0.19-9.5,1.14-22.61,1.14-33.82c0-9.5-0.38-17.48-1.52-20.521c-0.57-1.52-0.76-2.47-0.76-3.04c0-0.76,0.19-0.95,0.76-0.95
			c0.38,0,0.95,0.19,1.52,0.57c3.23,1.33,13.11,6.65,13.11,6.65h24.51c1.71,0,2.28-0.38,2.66-1.14c0.95-1.14,3.61-4.18,4.56-5.32
			c0.38-0.57,0.76-0.95,1.33-0.95c0.38,0,0.95,0.19,1.71,0.76c2.47,1.9,7.03,5.32,9.12,7.22c0.76,0.76,1.33,1.71,1.33,2.47
			c0,0.76-0.57,1.71-2.28,2.47c-2.28,1.33-3.61,1.33-3.61,3.42c-0.19,6.65-0.19,13.301-0.19,20.521c0,5.13,0.19,10.64,0.19,16.72
			V205.912z M56.691,195.463c0.19-7.791,0.38-14.25,0.38-20.33c0-4.181-0.19-8.17-0.19-12.351H26.861
			c-0.19,6.46-0.19,13.11-0.19,21.47v11.211H56.691z M158.343,131.812c0,4.37-1.9,5.51-6.46,5.51h-0.76c-3.8,0-5.51-1.33-5.51-5.51
			v-0.57c0-1.71,0.19-3.42,0.19-5.32h-42.181v18.24c0,16.91,0,36.86,0.19,47.5c0,5.511,1.9,6.08,7.22,7.601
			c4.18,1.14,11.97,1.71,20.14,1.71c8.74,0,18.05-0.76,23.37-2.09c7.03-1.9,8.36-2.66,11.97-28.69c0.19-1.71,0.76-2.28,1.33-2.28
			c0.76,0,1.52,0.95,1.52,2.28c0.57,22.61-0.57,23.181,4.37,26.22c1.71,0.951,2.47,2.66,2.47,4.561c0,3.609-3.04,7.6-10.26,8.93
			c-11.21,1.9-23.94,2.851-35.531,2.851c-9.69,0-18.62-0.57-25.46-1.9c-7.41-1.52-13.11-4.37-13.11-13.68v-0.38
			c0-10.83,0.57-24.891,0.57-38.381c0-18.43-0.57-35.34-2.09-39.71c-0.57-1.33-0.76-2.28-0.76-2.85c0-0.76,0.38-1.14,0.95-1.14
			c0.38,0,0.95,0.19,1.33,0.38c6.08,2.85,14.06,7.03,14.06,7.03h39.901c0.19-9.31,0.38-20.9,0.38-31.35
			c0-10.45-0.19-19.57-0.38-24.13h-45.411c-5.32,0-11.59,0.38-13.87,0.95h-0.76c-0.76,0-1.14-0.19-1.71-1.14
			c-0.57-1.14-1.33-2.66-1.71-4.18c0-0.38-0.19-0.57-0.19-0.95s0.19-0.57,0.57-0.57s0.76,0.19,1.33,0.38
			c3.04,1.14,9.88,1.71,16.34,1.71h42.18c1.71,0,2.09-0.38,2.85-1.33c0.76-1.14,3.23-4.18,4.37-5.51c0.57-0.57,0.95-0.95,1.33-0.95
			c0.57,0,0.95,0.19,1.71,0.76c2.85,1.9,7.98,5.7,10.07,7.41c0.95,0.76,1.52,1.52,1.52,2.28c0,0.95-0.76,1.9-2.66,2.66
			c-2.09,1.52-3.61,1.52-3.61,3.61c-0.19,4.94-0.38,16.53-0.38,28.88c0,10.83,0.38,22.23,0.57,30.59V131.812z"/>
		<path fill="#FFFFFF" d="M309.962,217.883c-1.33,0-1.9-0.76-2.09-1.9c-1.33-8.359-4.37-7.979-14.06-11.59
			c-0.76-0.38-1.33-0.949-1.33-1.71c0-0.569,0.38-0.95,1.52-0.95h0.19c4.56,0.57,11.4,1.33,16.15,1.33c3.04,0,3.04-1.14,3.04-3.42
			c0.19-5.7,0.38-17.48,0.38-30.971v-9.88c-11.21,13.11-22.42,22.8-33.63,31.73c-0.76,0.57-0.95,2.47-1.14,4.37
			c-0.38,1.9-1.14,2.85-2.09,2.85c-0.95,0-1.71-0.76-2.66-2.47c-1.33-2.47-3.23-4.94-4.94-8.55
			c-17.86,8.17-34.391,14.63-52.821,19.95c-1.9,0.569-1.33,1.899-1.71,4.37c-0.38,1.52-1.14,2.47-2.09,2.47
			c-0.95,0-1.9-0.569-2.47-2.09c-2.09-4.56-4.18-9.88-6.27-15.96c-0.19-0.57-0.19-0.95-0.19-1.141c0-0.57,0.19-0.76,0.57-0.76
			c0.57,0,1.33,0.38,2.09,0.38c9.12-0.19,18.05-1.521,26.79-2.85c0.19-7.601,0.19-16.911,0.19-26.601v-30.021h-10.45
			c-5.32,0-11.59,0.38-13.87,0.95h-0.76c-0.76,0-1.14-0.19-1.71-1.14c-0.57-1.14-1.33-2.66-1.71-4.18c0-0.38-0.19-0.57-0.19-0.95
			c0-0.38,0.19-0.57,0.57-0.57c0.38,0,0.76,0.19,1.33,0.38c3.04,1.14,9.88,1.71,16.34,1.71h10.45c0-8.74,0-16.91-0.19-23.561h-1.33
			c-5.32,0-11.59,0.38-13.87,0.95h-0.76c-0.76,0-1.14-0.19-1.71-1.14c-0.19-0.38-0.38-0.76-0.57-1.14
			c-2.85,3.23-6.08,6.46-9.5,9.311c-0.76,0.57-1.33,0.95-1.71,0.95s-0.57-0.57-0.57-1.14c0-0.57,0.19-1.14,0.38-1.52
			c13.87-18.24,25.46-47.69,26.79-60.991v-1.14c0-0.57,0.19-0.95,1.14-0.95h0.38c6.46,1.71,11.021,2.85,16.34,4.37
			c1.52,0.38,2.66,1.52,2.66,2.66c0,0.95-0.95,1.9-3.23,2.09c-2.28,0.19-3.8,0-4.75,1.9c-0.19,0.38-0.38,0.76-0.38,1.14
			c14.44,5.7,24.13,12.54,27.55,19.95c0.76,1.52,0.95,2.85,0.95,4.18c0,3.61-2.47,6.08-5.32,6.08c-1.9,0-3.8-1.14-5.32-3.8
			c-4.18-7.41-7.41-15.39-19.19-23.75c-4.56,9.5-11.97,24.13-23.18,37.24c3.61,0.57,8.93,0.95,13.87,0.95h13.87
			c0.95,0,1.52,0,2.66-0.95c0.95-0.95,3.99-4.94,5.89-7.22c0.38-0.57,0.76-0.76,1.14-0.76s0.76,0.19,1.52,0.76
			c2.09,1.71,7.98,6.65,11.02,9.5c0.57,0.38,0.76,0.95,0.76,1.33c0,0.57-0.76,1.14-1.9,1.14h-23.18
			c-0.19,6.84-0.19,14.82-0.19,23.561h6.27c1.33,0,2.09,0,3.04-1.14s5.13-6.08,6.46-7.79c0.57-0.57,0.95-0.95,1.33-0.95
			s0.76,0.38,1.33,0.76c3.04,2.47,9.5,7.98,11.4,10.07c0.76,0.76,0.95,1.33,0.95,1.71c0,0.76-0.76,1.14-2.28,1.14h-28.5
			c0,19,0,39.9,0.19,54.721c7.41-1.521,15.58-3.42,24.13-5.7c-0.19-0.38-0.38-0.949-0.57-1.33c0-0.189-0.19-0.38-0.19-0.57
			c0-1.33,2.47-0.949,3.99-1.33c11.97-3.42,28.69-15.01,42.75-26.22v-14.25c0-11.21,0-21.09-0.19-26.791h-25.65
			c-5.32,0-11.59,0.38-13.87,0.95h-0.76c-0.76,0-1.14-0.19-1.71-1.14c-0.57-1.14-1.33-2.66-1.71-4.18c0-0.38-0.19-0.57-0.19-0.95
			c0-0.38,0.19-0.57,0.57-0.57c0.38,0,0.76,0.19,1.33,0.38c3.04,1.14,9.88,1.71,16.34,1.71h44.65c1.14-8.36,1.521-16.15,2.09-23.371
			h-34.201c-5.32,0-11.59,0.38-13.87,0.95h-0.76c-0.76,0-1.14-0.19-1.71-1.14c-0.57-1.14-1.33-2.66-1.71-4.18
			c0-0.38-0.19-0.57-0.19-0.95c0-0.38,0.19-0.57,0.57-0.57s0.76,0.19,1.33,0.38c3.04,1.14,9.88,1.71,16.34,1.71h34.391
			c0.76-6.65,0.95-11.59,1.52-19h-42.75c-5.32,0-11.59,0.38-13.87,0.95h-0.76c-0.76,0-1.14-0.19-1.71-1.14
			c-0.57-1.14-1.33-2.66-1.71-4.18c0-0.38-0.19-0.57-0.19-0.95s0.19-0.57,0.57-0.57c0.38,0,0.76,0.19,1.33,0.38
			c3.04,1.14,9.88,1.71,16.34,1.71h39.521c1.9,0,2.28-0.38,3.04-1.33c0.76-1.14,3.23-3.23,4.18-4.56c0.38-0.76,0.76-1.14,1.52-1.14
			c0.38,0,0.95,0.19,1.9,0.95c2.47,1.9,6.08,4.56,8.55,6.46c1.14,0.95,2.09,1.9,2.09,2.85c0,0.57-0.57,1.33-2.28,2.09
			c-3.04,1.33-4.94,1.52-5.13,3.8c-1.14,11.02-2.09,23.94-3.61,40.851h4.56c0.95,0,1.52,0,2.66-0.95c0.95-0.95,4.56-6.27,6.46-9.12
			c0.38-0.57,0.57-0.76,0.95-0.76c0.57,0,0.95,0.19,1.71,0.76c2.47,1.9,11.59,9.31,13.68,11.4c0.57,0.57,0.76,0.95,0.76,1.33
			c0,0.76-0.76,1.14-1.9,1.14h-47.881v3.99c3.23,12.73,7.41,24.7,12.92,35.34c8.17-8.17,13.49-16.91,17.29-26.22
			c0.38-0.76,0.38-1.33,0.76-1.33c0.38,0,0.95,0.38,1.71,0.76c4.37,2.66,8.74,5.51,12.35,7.98c1.33,0.95,1.9,1.9,1.9,2.47
			c0,0.95-0.95,1.52-2.47,1.52c-0.38,0-1.14,0-1.71-0.19c-0.38-0.19-0.57-0.19-0.95-0.19c-1.33,0-2.66,0.95-3.8,1.9
			c-7.6,6.08-14.25,10.83-23.75,16.53c8.36,15.39,20.141,26.981,33.821,32.3c0.57,0.19,0.95,0.761,0.95,1.33
			c0,0.38-0.19,0.95-0.76,0.95c-5.51,1.141-8.55,5.32-8.93,11.02c-0.19,1.141-0.57,1.521-1.14,1.521c-0.38,0-0.57,0-0.76-0.19
			c-17.48-12.729-30.971-44.84-37.621-72.96c0,23.37,0.19,59.47,0.19,70.491v3.421c0,5.89-1.33,12.16-14.06,14.439H309.962z
			 M215.341,174.372c-1.71-7.03,1.14-14.44-6.65-28.12c-0.19-0.38-0.38-0.95-0.38-1.33c0-0.57,0.38-0.95,0.76-0.95
			c0.38,0,0.95,0.19,1.52,0.76c9.12,8.55,15.01,17.86,15.01,26.6c0,4.94-2.85,7.41-5.51,7.41
			C218.001,178.742,216.101,177.412,215.341,174.372z M256.001,143.022c0-0.38,0-0.76,0.57-0.76c0.19,0,0.57,0.19,0.76,0.19
			c4.37,1.33,7.41,2.85,11.4,4.75c1.71,0.76,2.85,1.9,2.85,2.85c0,0.95-0.95,1.9-3.61,2.09c-1.9,0.19-1.9,0.95-2.85,3.23
			c-3.61,8.17-9.88,18.62-15.39,25.08c-0.57,0.57-1.14,0.95-1.52,0.95s-0.57-0.189-0.57-0.76c0-0.381,0.19-0.95,0.38-1.52
			c4.75-12.351,7.6-23.941,7.98-34.201V143.022z M292.862,150.432c-2.47-6.08-3.42-13.3-15.58-22.041
			c-0.57-0.38-0.76-0.95-0.76-1.52c0-0.38,0.19-0.76,0.95-0.76c0.38,0,0.76,0,1.33,0.19c8.17,2.47,20.71,7.22,24.51,17.67
			c0.38,1.14,0.57,2.28,0.57,3.42c0,4.37-2.85,7.41-5.89,7.41C296.092,154.802,294.192,153.472,292.862,150.432z"/>
		<path fill="#FFFFFF" d="M420.994,92.75c0-6.09,4.83-11.13,10.5-11.13c5.67,0,10.5,5.04,10.5,11.13c0,6.93-4.831,11.34-10.5,11.34
			C425.824,104.09,420.994,99.68,420.994,92.75z M420.994,176.752c0-6.93,4.83-11.97,10.5-11.97c5.67,0,10.5,5.041,10.5,11.97
			c0,6.09-4.831,11.341-10.5,11.341C425.824,188.093,420.994,182.842,420.994,176.752z"/>
		<path fill="#FFFFFF" d="M562.759,29.556h-37.236v170.989h-24.825V5.373h62.061V29.556z M556.339,11.793h-49.221v182.118h11.984
			V23.135h37.237V11.793z"/>
		<path fill="#FFFFFF" d="M627.515,169.661c1.368,0.306,3.113,0.078,5.244-0.685c2.127-0.758,4.179-1.596,6.155-2.508
			c1.974-0.912,3.763-1.67,5.358-2.28c1.596-0.605,2.622-0.456,3.078,0.456c0,0.307-0.307,0.763-0.912,1.369
			c-1.978,1.977-3.915,3.914-5.813,5.813c-1.903,1.902-3.916,3.763-6.042,5.586c-4.411,3.802-8.817,7.41-13.225,10.83
			c-4.41,3.42-8.817,7.032-13.224,10.83c-0.609,0.456-1.863,1.636-3.763,3.534c-1.902,1.902-3.954,3.875-6.155,5.928
			c-2.205,2.052-4.183,3.876-5.929,5.473c-1.749,1.596-2.774,2.394-3.077,2.394c-1.065,0-2.473-1.368-4.219-4.104
			c-1.749-2.736-3.42-5.889-5.016-9.462c-1.596-3.569-3.003-7.028-4.218-10.374c-1.219-3.342-1.824-5.621-1.824-6.84l0.912-0.912
			c0.912-0.149,2.657-0.492,5.244-1.025c2.583-0.531,5.244-1.176,7.979-1.938c2.736-0.759,5.166-1.557,7.296-2.394
			c2.127-0.834,3.192-1.711,3.192-2.623V33.317c0-1.368,0.684-2.052,2.052-2.052c0.912,0,2.851,0.114,5.814,0.342
			s6.116,0.535,9.462,0.912c3.342,0.381,6.459,0.762,9.348,1.14c2.886,0.381,4.71,0.648,5.472,0.798
			c0.76,0.456,1.215,0.763,1.368,0.912c-0.456,1.218-1.368,2.319-2.735,3.306c-1.368,0.99-2.053,2.091-2.053,3.306v47.88
			l0.685,1.596c0.759,0.763,1.632,0.535,2.622-0.684c0.986-1.215,1.938-2.811,2.85-4.788c0.912-1.974,1.785-3.912,2.622-5.814
			c0.834-1.898,1.482-3.078,1.938-3.534l1.14-0.456c0.456,0.306,1.403,1.293,2.85,2.964c1.443,1.674,3,3.612,4.675,5.814
			c1.67,2.205,3.267,4.296,4.787,6.27c1.518,1.978,2.658,3.345,3.421,4.104c0.605,0,1.254-0.149,1.938-0.456
			c0.684-0.303,1.026-0.833,1.026-1.596V48.365c0-1.671,0.684-2.508,2.052-2.508c1.824,0,3.608,0.153,5.358,0.456
			c1.745,0.307,3.455,0.609,5.13,0.912c3.341,0.456,6.687,0.798,10.031,1.026c3.342,0.228,6.688,0.648,10.032,1.254l0.912,0.684
			c-0.307,1.521-1.179,2.775-2.622,3.762c-1.446,0.99-2.166,2.091-2.166,3.306v39.9c0,1.368,0.759,2.052,2.28,2.052
			c0.912,0,2.166-0.114,3.762-0.342s3.192-0.645,4.788-1.254c1.596-0.606,3-1.329,4.218-2.166c1.215-0.834,1.824-1.86,1.824-3.078
			V28.301c0-1.062,0.456-1.596,1.368-1.596c5.016,0,9.993,0.346,14.934,1.03c4.938,0.684,9.918,1.332,14.935,1.938
			c1.062,0.762,1.481,1.485,1.254,2.169c-0.229,0.684-0.724,1.407-1.482,2.169c-0.762,0.763-1.561,1.521-2.394,2.284
			c-0.837,0.762-1.254,1.521-1.254,2.28v43.149c0,0.762,0.264,1.218,0.798,1.371c0.53,0.153,1.101,0.228,1.71,0.228
			c2.43,0,4.938-0.609,7.523-1.827c2.583-1.219,5.091-2.701,7.524-4.453c2.43-1.75,4.71-3.652,6.84-5.708
			c2.127-2.052,3.951-3.918,5.473-5.593l1.367-0.684l1.368,0.456c0.605,0.916,2.013,2.248,4.218,3.997
			c2.202,1.749,4.482,3.577,6.841,5.479c2.354,1.902,4.445,3.691,6.27,5.365s2.736,2.814,2.736,3.423
			c0,0.912-0.307,1.521-0.912,1.824c-0.609,0.306-1.293,0.723-2.052,1.257c-0.763,0.535-1.446,1.372-2.053,2.512
			c-0.608,1.14-0.912,2.928-0.912,5.365c0,4.111,0.15,8.219,0.456,12.326c0.303,4.111,0.456,8.219,0.456,12.33
			c0,5.786-0.381,12.102-1.14,18.949c-0.763,6.847-2.358,13.203-4.788,19.063c-2.434,5.86-5.928,10.77-10.488,14.724
			c-4.56,3.958-10.566,5.935-18.012,5.935c-1.521,0-2.28-0.758-2.28-2.283c0-1.367-0.039-3.309-0.113-5.82
			c-0.079-2.509-0.382-5.02-0.912-7.532c-0.534-2.512-1.333-4.681-2.395-6.509c-1.064-1.824-2.508-2.739-4.332-2.739
			c-1.218,0-2.205,0.192-2.964,0.57c-0.762,0.381-1.14,1.258-1.14,2.625v25.796c0,1.371-1.026,2.55-3.078,3.541
			c-2.052,0.99-4.41,1.827-7.068,2.511c-2.661,0.685-5.283,1.18-7.865,1.482c-2.587,0.307-4.411,0.456-5.473,0.456
			c-1.521,0-2.28-0.759-2.28-2.283c0-9.587,0.036-19.138,0.114-28.65c0.075-9.512,0.114-19.059,0.114-28.649
			c0-4.414,0.035-8.903,0.114-13.47c0.074-4.567-0.039-9.131-0.343-13.698c0-0.763-0.039-1.407-0.113-1.942
			c-0.079-0.531-0.114-1.179-0.114-1.941c-0.763-0.759-1.749-1.14-2.964-1.14c-0.609,0-1.561,0.228-2.851,0.684
			c-1.293,0.456-2.661,0.99-4.104,1.6c-1.446,0.609-2.814,1.218-4.104,1.828c-1.293,0.609-2.166,1.065-2.621,1.368l-0.685,1.6
			v90.403c0,1.218,0.378,2.287,1.14,3.198c0.76,0.912,1.671,1.675,2.736,2.284c1.062,0.609,2.241,1.104,3.534,1.481
			c1.29,0.382,2.394,0.57,3.306,0.57h51.756c3.495,0,6.42-0.491,8.778-1.481c2.354-0.987,4.407-2.355,6.156-4.104
			c1.745-1.745,3.306-3.798,4.674-6.156c1.368-2.354,2.736-4.901,4.104-7.638c0.149-0.303,0.605-1.026,1.367-2.166
			c0.759-1.141,1.29-1.711,1.597-1.711c0.303,0,0.53,0.229,0.684,0.685c0.149,0.456,0.303,0.837,0.456,1.14
			c0.456,2.587,0.605,5.17,0.456,7.752c-0.153,2.587-0.228,5.17-0.228,7.752c0,1.219,0.684,2.281,2.052,3.192
			c1.368,0.912,2.85,1.86,4.445,2.843c1.597,0.983,3.078,2.116,4.446,3.398c1.368,1.283,2.052,2.979,2.052,5.088
			c0,4.524-1.596,8.137-4.787,10.852c-2.434,1.959-5.209,3.466-8.322,4.523c-3.117,1.052-6.384,1.807-9.805,2.263
			c-3.42,0.448-6.84,0.712-10.26,0.791c-3.42,0.071-6.576,0.11-9.462,0.11c-8.664,0-17.292,0.035-25.878,0.114
			c-8.589,0.075-17.214,0.114-25.878,0.114c-2.586,0-5.397-0.039-8.436-0.114c-3.043-0.079-6.007-0.421-8.893-1.026
			c-2.889-0.609-5.664-1.521-8.322-2.736c-2.661-1.218-4.901-2.889-6.726-5.016c-0.912-1.064-1.749-2.319-2.508-3.762
			c-0.763-1.443-1.293-2.85-1.597-4.219c-0.608-2.582-0.876-5.244-0.798-7.979c0.075-2.735,0.114-5.394,0.114-7.979
			c-0.153-9.727-0.342-19.416-0.57-29.07c-0.228-9.651-0.342-19.341-0.342-29.07c0-1.518,0.075-3.341,0.229-5.472
			c0.149-2.127,0.264-4.332,0.342-6.612c0.074-2.28,0.114-4.481,0.114-6.612c0-2.127-0.153-3.798-0.456-5.016
			c-0.307-1.518-0.99-2.28-2.053-2.28c-0.456,0-1.481,0.381-3.077,1.14c-1.597,0.763-3.307,1.561-5.131,2.394
			c-1.823,0.837-3.612,1.635-5.357,2.394c-1.749,0.763-3.003,1.14-3.762,1.14c-1.065,0-1.597-0.456-1.597-1.368
			c0-1.368,1.101-2.315,3.307-2.85c2.201-0.531,4.596-1.14,7.182-1.824c2.583-0.684,4.977-1.557,7.182-2.622
			c2.202-1.062,3.307-2.886,3.307-5.472c0-0.759-0.343-1.824-1.026-3.192c-0.684-1.368-1.407-2.052-2.166-2.052h-25.08
			c-1.521,0-2.28,0.762-2.28,2.28c0,1.674-0.078,4.332-0.228,7.98c-0.153,3.648-0.307,7.752-0.456,12.312
			c-0.153,4.56-0.307,9.312-0.456,14.25c-0.153,4.941-0.268,9.541-0.342,13.794c-0.078,4.257-0.078,7.905,0,10.944
			c0.074,3.042,0.264,4.941,0.57,5.7L627.515,169.661z M578.723,98.981l0.912-0.684c0.605,0,1.632-0.036,3.078-0.114
			c1.442-0.075,2.964-0.114,4.56-0.114s3.078,0.078,4.446,0.228c1.368,0.153,2.201,0.456,2.508,0.912
			c0,0.307-0.648,0.535-1.938,0.684c-1.293,0.153-2.735,0.228-4.332,0.228c-1.596,0-3.191-0.036-4.787-0.114
			c-1.597-0.075-2.775-0.114-3.534-0.114L578.723,98.981z M734.675,149.825c3.797-0.456,6.914-1.86,9.348-4.218
			c2.43-2.354,4.254-5.205,5.472-8.55c1.215-3.342,2.053-6.84,2.509-10.488c0.456-3.648,0.684-7.068,0.684-10.26
			c0-2.127,0-4.674,0-7.638c0-2.964-0.078-5.963-0.228-9.006c-0.153-3.039-0.382-6.003-0.685-8.892
			c-0.307-2.885-0.684-5.319-1.14-7.296c-0.307-0.759-0.57-1.29-0.798-1.596c-0.229-0.303-0.724-0.456-1.482-0.456
			c-0.912,0-2.358,0.153-4.332,0.456c-1.978,0.306-3.954,0.798-5.928,1.482c-1.978,0.684-3.688,1.521-5.13,2.508
			c-1.446,0.99-2.166,2.091-2.166,3.306v56.316c0,0.456,0.303,1.14,0.912,2.052c0.605,0.912,1.062,1.521,1.367,1.824
			L734.675,149.825z"/>
		<path fill="#FFFFFF" d="M872.615,184.938c-3.648,0.307-7.489,1.977-11.515,5.016c-4.029,3.043-7.791,6.348-11.286,9.918
			c-3.498,3.573-6.498,6.805-9.006,9.689c-2.508,2.89-4.143,4.332-4.901,4.332c-0.456,0-1.447-1.328-2.965-3.989
			c-1.521-2.657-3.156-5.661-4.901-9.007c-1.749-3.341-3.346-6.611-4.788-9.803c-1.446-3.192-2.395-5.244-2.851-6.156
			c1.518-0.605,3.456-1.254,5.814-1.938c2.354-0.685,4.71-1.368,7.068-2.052c2.354-0.684,4.596-1.404,6.726-2.166
			c2.127-0.759,3.648-1.596,4.56-2.508c0.15-1.062,0.343-3.609,0.57-7.639c0.229-4.025,0.417-8.966,0.57-14.82
			c0.149-5.85,0.264-12.312,0.342-19.38c0.075-7.068,0.149-14.211,0.229-21.432c0.074-7.217,0.113-14.25,0.113-21.09
			s0-12.917,0-18.24c0-5.319-0.078-9.651-0.228-12.996c-0.153-3.342-0.307-5.166-0.456-5.472c-0.609-1.062-2.052-1.518-4.332-1.368
			c-2.28,0.153-4.639,0.342-7.068,0.57c-2.433,0.228-4.638,0.267-6.611,0.114c-1.978-0.149-2.965-1.062-2.965-2.736
			c0-0.456,0.264-0.798,0.799-1.026c0.53-0.228,0.947-0.342,1.254-0.342h42.18c1.062,0,2.28-0.987,3.648-2.964
			c1.367-1.974,2.735-4.179,4.104-6.612c1.368-2.43,2.622-4.635,3.762-6.612c1.141-1.974,2.013-2.964,2.622-2.964
			c0.456,0,1.632,0.876,3.534,2.622c1.898,1.749,3.99,3.762,6.271,6.042c2.279,2.28,4.445,4.485,6.497,6.612
			c2.053,2.13,3.381,3.499,3.99,4.104l0.685,1.596c0,0.912-0.763,1.482-2.28,1.71c-1.521,0.228-3.385,0.306-5.586,0.228
			c-2.205-0.075-4.639-0.228-7.296-0.456c-2.661-0.228-5.095-0.377-7.296-0.456c-2.205-0.075-4.068,0.079-5.586,0.456
			c-1.521,0.381-2.28,1.104-2.28,2.166v52.668l0.912,1.596c1.518,0.762,2.696,0.534,3.534-0.684c0.833-1.215,1.596-2.736,2.279-4.56
			c0.685-1.824,1.368-3.684,2.053-5.586c0.684-1.899,1.71-3.078,3.077-3.534c0.912,0.153,1.974,1.026,3.192,2.622
			c1.215,1.596,2.544,3.345,3.99,5.244c1.442,1.902,2.964,3.612,4.56,5.13c1.597,1.521,3.228,2.28,4.902,2.28
			c0.456,0,0.759-0.264,0.912-0.798c0.149-0.531,0.228-0.948,0.228-1.254c0-0.605-0.228-1.671-0.684-3.192
			c-0.456-1.518-0.837-3.078-1.141-4.674c-0.306-1.596-0.42-3.039-0.342-4.332c0.075-1.29,0.72-1.938,1.938-1.938
			c3.342,0,6.801,0.991,10.374,2.964c3.569,1.977,6.801,4.485,9.689,7.524c2.886,3.042,5.244,6.348,7.068,9.918
			c1.824,3.573,2.736,7.032,2.736,10.374c0,3.954-0.648,6.993-1.938,9.12c-1.293,2.13-2.929,3.687-4.902,4.674
			c-1.977,0.99-4.143,1.446-6.498,1.368c-2.357-0.075-4.523-0.456-6.497-1.14c-1.978-0.684-3.613-1.482-4.902-2.394
			c-1.293-0.912-1.938-1.746-1.938-2.508c0-0.606,0.075-1.824,0.229-3.648c0.149-1.824,0.228-3.723,0.228-5.7
			c0-1.974-0.192-3.684-0.569-5.13c-0.382-1.443-1.104-2.166-2.166-2.166h-28.272c-1.521,0-2.28,0.762-2.28,2.28v43.776
			c0,1.521,0.834,2.13,2.509,1.825c1.671-0.303,3.608-0.913,5.813-1.825c2.202-0.912,4.368-1.898,6.498-2.964
			c2.127-1.062,3.569-1.596,4.332-1.596c0.912,0,1.368,0.381,1.368,1.14c0,0.763-0.912,2.13-2.736,4.104
			c-1.824,1.977-3.84,4.068-6.042,6.27c-2.205,2.205-4.183,4.297-5.928,6.271c-1.749,1.978-2.622,3.271-2.622,3.876
			c0.149,1.674,0.72,2.508,1.71,2.508c0.987,0,2.088-0.149,3.306-0.455c1.368-0.304,3.039-0.987,5.017-2.053
			c1.974-1.062,3.647-1.974,5.016-2.736c0.759-0.455,2.241-1.215,4.446-2.279c2.201-1.062,4.749-2.316,7.638-3.762
			c2.886-1.443,5.964-2.965,9.234-4.561c3.267-1.596,6.27-3.039,9.006-4.332c2.736-1.29,5.052-2.355,6.954-3.192
			c1.898-0.834,2.999-1.254,3.306-1.254l0.685,0.912c-0.456,1.521-1.446,3.762-2.965,6.726c-1.521,2.965-3.306,6.234-5.357,9.805
			c-2.052,3.573-4.332,7.296-6.84,11.172s-4.941,7.523-7.296,10.943c-2.358,3.421-4.524,6.424-6.498,9.007
			c-1.978,2.587-3.573,4.332-4.788,5.243c-0.307,0.307-0.763,0.457-1.368,0.457c-0.763,0-2.244-1.29-4.446-3.877
			c-2.205-2.582-4.56-5.507-7.067-8.777c-2.509-3.268-4.941-6.42-7.297-9.462c-2.357-3.039-3.989-5.017-4.901-5.929L872.615,184.938
			z M827.243,115.169h12.084l1.596,0.684l0.228,0.228l-0.456,0.456h-13.451l-0.685-0.684L827.243,115.169z M936.911,75.725
			c0,0.456-0.268,0.798-0.799,1.026c-0.534,0.228-0.951,0.342-1.254,0.342h-41.951c-0.307,0-0.724-0.114-1.255-0.342
			c-0.534-0.228-0.798-0.57-0.798-1.026c0.15-0.149,0.378-0.228,0.685-0.228c0.605,0,2.166,0,4.674,0s5.394-0.036,8.664-0.114
			c3.267-0.075,6.762-0.114,10.488-0.114c3.723,0,7.182,0.039,10.374,0.114c3.191,0.078,5.813,0.114,7.865,0.114
			C935.657,75.497,936.758,75.576,936.911,75.725z M985.247,131.357c0.605-0.759,1.289-2.315,2.052-4.674
			c0.759-2.355,1.557-5.13,2.394-8.322c0.834-3.192,1.746-6.573,2.736-10.146c0.987-3.57,2.013-6.84,3.078-9.804
			c1.062-2.964,2.166-5.394,3.306-7.296c1.141-1.899,2.395-2.85,3.763-2.85c0.605,0,2.315,0.99,5.13,2.964
			c2.811,1.978,5.774,4.143,8.892,6.498c3.113,2.358,5.889,4.599,8.322,6.726c2.43,2.13,3.647,3.345,3.647,3.648
			c0,0.762-0.192,1.218-0.569,1.368c-0.382,0.153-0.798,0.381-1.254,0.684c-1.521,0.762-4.411,2.205-8.664,4.332
			c-4.258,2.13-8.664,4.446-13.225,6.954c-4.56,2.508-8.589,4.98-12.084,7.41c-3.498,2.433-5.244,4.332-5.244,5.7
			c0,4.257,1.176,8.361,3.534,12.312c2.355,3.954,5.319,7.638,8.893,11.058c3.569,3.42,7.409,6.651,11.514,9.69
			c4.104,3.042,7.94,5.814,11.514,8.322c3.57,2.508,6.534,4.713,8.893,6.611c2.354,1.902,3.534,3.534,3.534,4.902
			c0,0.762-0.456,1.446-1.368,2.052c-2.28,1.824-4.332,3.42-6.156,4.788s-3.498,2.775-5.016,4.218
			c-1.521,1.446-2.929,3.078-4.219,4.902c-1.293,1.823-2.622,4.104-3.989,6.84c-0.153,0.456-0.421,1.14-0.799,2.052
			c-0.381,0.912-0.798,1.824-1.254,2.736s-0.951,1.749-1.481,2.508c-0.534,0.763-1.026,1.141-1.482,1.141
			c-1.218,0-2.735-1.518-4.56-4.561c-1.824-3.039-3.802-6.914-5.929-11.628c-2.13-4.71-4.296-9.954-6.497-15.731
			c-2.206-5.775-4.258-11.287-6.156-16.531c-1.902-5.243-3.573-9.953-5.017-14.135c-1.446-4.179-2.472-7.104-3.077-8.778
			c-0.153-0.456-0.535-1.403-1.141-2.85c-0.609-1.443-1.14-2.166-1.596-2.166c-2.28,0-3.762,1.14-4.446,3.42
			c-0.684,2.28-1.025,4.257-1.025,5.928v66.804c0,3.494-1.255,6.498-3.763,9.006s-5.511,4.561-9.006,6.156
			c-3.498,1.596-7.182,2.771-11.058,3.533c-3.876,0.76-7.183,1.141-9.918,1.141c-0.763,0-1.254-0.192-1.482-0.57
			c-0.228-0.381-0.495-0.876-0.798-1.481c-0.912-2.736-1.521-4.941-1.824-6.612c-0.307-1.674-0.648-3.191-1.025-4.561
			c-0.382-1.367-1.065-2.813-2.053-4.332c-0.99-1.521-2.622-3.494-4.901-5.928c-0.307-0.303-0.798-0.833-1.482-1.596
			c-0.684-0.759-1.026-1.367-1.026-1.824c0-0.758,0.873-1.215,2.622-1.367c1.746-0.15,3.684-0.189,5.814-0.114
			c2.127,0.078,4.104,0.153,5.928,0.228c1.824,0.078,2.886-0.035,3.192-0.342c0.456-0.605,0.986-1.671,1.596-3.191
			c0.605-1.518,0.912-2.658,0.912-3.42V28.985c0-1.518,0.759-2.28,2.28-2.28c1.215,0,3.267,0.153,6.155,0.456
			c2.886,0.306,5.964,0.648,9.234,1.026c3.267,0.381,6.345,0.798,9.234,1.254c2.886,0.456,4.862,0.837,5.928,1.14
			c0.456,0.912,0.149,1.789-0.912,2.622c-1.065,0.837-1.824,1.561-2.28,2.166c-0.456,0.609-0.798,1.749-1.025,3.42
			c-0.229,1.674-0.382,3.499-0.456,5.472c-0.078,1.977-0.114,3.876-0.114,5.7c0,1.824,0,3.192,0,4.104
			c0,4.411,0.342,9.882,1.026,16.416c0.684,6.538,1.596,13.303,2.735,20.292c1.141,6.993,2.395,13.719,3.763,20.178
			c1.367,6.462,2.811,11.742,4.332,15.846c0.303,0.912,0.684,1.788,1.14,2.622C983.423,130.256,984.182,130.901,985.247,131.357z
			 M1032.442,75.269c-0.456,1.218-1.446,1.824-2.964,1.824h-50.388c-0.456,0-0.951-0.114-1.482-0.342
			c-0.534-0.228-0.951-0.492-1.254-0.798c0.303-0.456,1.785-0.72,4.446-0.798c2.657-0.075,5.508-0.417,8.55-1.026
			c3.039-0.605,5.814-1.746,8.322-3.42c2.508-1.671,3.762-4.332,3.762-7.98c0-2.583-0.648-5.091-1.938-7.524
			c-1.294-2.43-2.7-4.749-4.219-6.954c-1.521-2.202-2.928-4.368-4.218-6.498c-1.293-2.126-1.938-4.253-1.938-6.384
			c0-1.368,0.491-2.127,1.481-2.28c0.987-0.15,1.938-0.228,2.851-0.228c2.43,0,5.244,0.192,8.436,0.57
			c3.192,0.381,6.231,1.065,9.12,2.052c2.886,0.991,5.318,2.473,7.296,4.446c1.974,1.977,2.964,4.56,2.964,7.752
			c0,2.433-0.569,4.674-1.71,6.726c-1.14,2.052-1.71,4.296-1.71,6.726c0,1.218,0.72,2.472,2.166,3.762
			c1.443,1.293,3.039,2.586,4.788,3.876c1.746,1.293,3.381,2.473,4.902,3.534C1031.225,73.37,1032.137,74.357,1032.442,75.269z"/>
		<path fill="#FFFFFF" d="M1058.099,227.066h37.237V56.077h24.824v195.172h-62.062V227.066z M1064.52,244.829h49.221V62.711h-11.984
			v170.775h-37.236V244.829z"/>
	</g>
</g>
</svg>
