<?xml version="1.0" encoding="utf-8"?>
<!-- Generator: Adobe Illustrator 26.2.1, SVG Export Plug-In . SVG Version: 6.00 Build 0)  -->
<svg version="1.1" xmlns="http://www.w3.org/2000/svg" xmlns:xlink="http://www.w3.org/1999/xlink" x="0px" y="0px"
	 width="899.361px" height="154.703px" viewBox="0 0 899.361 154.703" enable-background="new 0 0 899.361 154.703"
	 xml:space="preserve">
<g id="レイヤー_2" display="none">
	<rect x="-3" y="-151" display="inline" width="918" height="508.17"/>
</g>
<g id="レイヤー_1" display="none">
	<text transform="matrix(1 0 0 1 158.3398 128.2363)" display="inline"><tspan x="0" y="0" fill="#FFFFFF" font-family="'MatisseProN-M-90ms-RKSJ-H'" font-size="107.2804px" letter-spacing="4">記</tspan><tspan x="111.571" y="0" fill="#FFFFFF" font-family="'MatisseProN-M-90ms-RKSJ-H'" font-size="107.2804px" letter-spacing="-19">録</tspan><tspan x="199.542" y="0" fill="#FFFFFF" font-family="'MatisseProN-M-90ms-RKSJ-H'" font-size="107.2804px" letter-spacing="-81">：</tspan><tspan x="225.289" y="0" fill="#FFFFFF" font-family="'MatisseProN-M-90ms-RKSJ-H'" font-size="107.2804px" letter-spacing="-6">「</tspan><tspan x="326.132" y="0" fill="#FFFFFF" font-family="'MatisseProN-M-90ms-RKSJ-H'" font-size="107.2804px">地</tspan><tspan x="433.412" y="0" fill="#FFFFFF" font-family="'MatisseProN-M-90ms-RKSJ-H'" font-size="107.2804px" letter-spacing="-2">球</tspan><tspan x="538.547" y="0" fill="#FFFFFF" font-family="'MatisseProN-M-90ms-RKSJ-H'" font-size="107.2804px" letter-spacing="-53">」</tspan></text>
</g>
<g id="レイヤー_3">
	<g>
		<path fill="#FFFFFF" d="M22.329,39.39c-4.763,0-10.376,0.34-12.417,0.85h-0.68c-0.68,0-1.021-0.17-1.531-1.02
			c-0.51-1.021-1.19-2.381-1.531-3.742c0-0.34-0.17-0.51-0.17-0.85c0-0.34,0.17-0.51,0.51-0.51s0.68,0.17,1.19,0.34
			c2.722,1.02,8.845,1.531,14.628,1.531h28.406c0.851,0,1.701-0.51,2.212-1.191c2.551-3.061,3.402-4.422,6.123-7.824
			c0.34-0.51,0.68-0.68,1.021-0.68s0.851,0.34,1.361,0.68c4.253,3.232,9.866,8.335,11.567,9.866c0.51,0.51,0.851,1.02,0.851,1.361
			c0,0.68-0.851,1.191-2.381,1.191H22.329z M28.453,18.298c-4.763,0-10.376,0.34-12.417,0.85h-0.68c-0.68,0-1.02-0.17-1.531-1.02
			c-0.51-1.021-1.191-2.382-1.531-3.742c0-0.34-0.17-0.51-0.17-0.851s0.17-0.51,0.51-0.51c0.34,0,0.68,0.17,1.191,0.34
			c2.722,1.021,8.845,1.531,14.628,1.531h17.009c0.851,0,1.361,0,2.382-0.851c0.85-0.851,3.912-5.103,5.613-7.144
			c0.34-0.51,0.68-0.68,1.021-0.68c0.34,0,0.68,0.17,1.361,0.68c1.871,1.531,9.695,8.335,10.376,9.185
			c0.51,0.51,0.68,0.851,0.68,1.191c0,0.68-0.85,1.021-1.871,1.021H28.453z M28.453,60.992c-4.763,0-10.376,0.34-12.417,0.851h-0.68
			c-0.68,0-1.02-0.17-1.531-1.021c-0.51-1.021-1.191-2.381-1.531-3.742c0-0.34-0.17-0.51-0.17-0.85c0-0.34,0.17-0.51,0.51-0.51
			c0.34,0,0.68,0.17,1.191,0.34c2.722,1.02,8.845,1.531,14.628,1.531h18.711c0.85,0,1.361,0,2.381-0.851
			c0.851-0.85,3.572-4.252,5.273-6.293c0.34-0.51,0.68-0.68,1.021-0.68c0.34,0,0.68,0.17,1.361,0.68
			c1.871,1.531,9.185,6.974,10.716,8.335c0.51,0.34,0.68,0.68,0.68,1.02c0,0.68-0.851,1.191-1.871,1.191H28.453z M28.453,82.765
			c-4.763,0-10.376,0.34-12.417,0.851h-0.68c-0.68,0-1.02-0.17-1.531-1.021c-0.51-1.021-1.191-2.381-1.531-3.742
			c0-0.34-0.17-0.51-0.17-0.85c0-0.34,0.17-0.51,0.51-0.51c0.34,0,0.68,0.17,1.191,0.34c2.722,1.02,8.845,1.531,14.628,1.531h18.711
			c0.85,0,1.361,0,2.381-0.851c0.851-0.85,3.572-4.252,5.273-6.293c0.34-0.51,0.68-0.68,1.021-0.68c0.34,0,0.68,0.17,1.361,0.68
			c2.041,1.531,9.015,6.804,10.716,8.335c0.51,0.51,0.68,0.85,0.68,1.19c0,0.68-0.68,1.021-1.871,1.021H28.453z M62.472,143.829
			c0,3.573-1.531,4.593-5.783,4.593h-0.34c-3.402,0-4.593-1.02-4.593-4.593v-0.68c0-1.191,0-4.082,0.17-5.273H25.051v9.695
			c0,4.253-1.021,5.103-5.443,5.103h-0.68c-3.062,0-4.422-1.021-4.422-4.082v-1.021c0.17-8.505,1.02-20.242,1.02-30.277
			c0-8.505-0.34-15.649-1.361-18.371c-0.51-1.361-0.68-2.211-0.68-2.722c0-0.68,0.17-0.851,0.68-0.851c0.34,0,0.851,0.17,1.361,0.51
			c2.892,1.191,11.737,5.953,11.737,5.953h21.943c1.531,0,2.041-0.34,2.381-1.021c0.851-1.02,3.232-3.742,4.083-4.763
			c0.34-0.51,0.68-0.851,1.19-0.851c0.34,0,0.851,0.17,1.531,0.68c2.211,1.701,6.293,4.763,8.165,6.464
			c0.68,0.68,1.19,1.531,1.19,2.212s-0.51,1.53-2.041,2.21c-2.041,1.191-3.232,1.191-3.232,3.062
			c-0.17,5.953-0.17,11.907-0.17,18.371c0,4.592,0.17,9.525,0.17,14.968V143.829z M51.926,134.474c0.17-6.974,0.34-12.757,0.34-18.2
			c0-3.743-0.17-7.314-0.17-11.056H25.221c-0.17,5.783-0.17,11.736-0.17,19.22v10.036H51.926z M142.928,77.492
			c0,3.912-1.701,4.933-5.783,4.933h-0.68c-3.402,0-4.933-1.191-4.933-4.933v-0.51c0-1.531,0.17-3.062,0.17-4.763H93.94v16.329
			c0,15.138,0,32.999,0.17,42.524c0,4.933,1.701,5.444,6.464,6.805c3.742,1.02,10.716,1.53,18.031,1.53
			c7.824,0,16.159-0.68,20.922-1.871c6.294-1.7,7.484-2.381,10.716-25.685c0.17-1.53,0.68-2.041,1.19-2.041
			c0.68,0,1.361,0.85,1.361,2.041c0.51,20.242-0.51,20.752,3.912,23.474c1.531,0.85,2.211,2.382,2.211,4.082
			c0,3.232-2.722,6.804-9.185,7.995c-10.036,1.7-21.432,2.551-31.808,2.551c-8.675,0-16.67-0.511-22.793-1.701
			c-6.634-1.361-11.737-3.912-11.737-12.247v-0.34c0-9.696,0.51-22.282,0.51-34.359c0-16.499-0.51-31.638-1.871-35.55
			c-0.51-1.191-0.68-2.041-0.68-2.551c0-0.68,0.34-1.021,0.851-1.021c0.34,0,0.851,0.17,1.19,0.34
			c5.443,2.551,12.587,6.294,12.587,6.294h35.72c0.17-8.335,0.34-18.711,0.34-28.066c0-9.355-0.17-17.52-0.34-21.602H91.049
			c-4.763,0-10.376,0.34-12.417,0.851h-0.68c-0.68,0-1.02-0.17-1.531-1.021c-0.51-1.02-1.191-2.381-1.531-3.742
			c0-0.34-0.17-0.51-0.17-0.851s0.17-0.51,0.51-0.51c0.34,0,0.68,0.17,1.191,0.34c2.722,1.021,8.845,1.531,14.628,1.531h37.761
			c1.531,0,1.871-0.34,2.551-1.19c0.68-1.021,2.892-3.742,3.912-4.933c0.51-0.51,0.851-0.851,1.191-0.851
			c0.51,0,0.851,0.17,1.531,0.68c2.551,1.701,7.144,5.103,9.015,6.634c0.851,0.68,1.361,1.361,1.361,2.041
			c0,0.85-0.68,1.701-2.382,2.381c-1.871,1.361-3.232,1.361-3.232,3.232c-0.17,4.422-0.34,14.798-0.34,25.855
			c0,9.695,0.34,19.901,0.51,27.386V77.492z"/>
		<path fill="#FFFFFF" d="M278.668,154.545c-1.191,0-1.701-0.68-1.871-1.701c-1.19-7.484-3.912-7.144-12.587-10.375
			c-0.68-0.34-1.191-0.85-1.191-1.531c0-0.51,0.34-0.851,1.361-0.851h0.17c4.082,0.511,10.206,1.19,14.458,1.19
			c2.722,0,2.722-1.02,2.722-3.061c0.17-5.103,0.34-15.649,0.34-27.726v-8.845c-10.036,11.737-20.071,20.411-30.107,28.406
			c-0.68,0.51-0.851,2.211-1.021,3.912c-0.34,1.7-1.021,2.551-1.871,2.551c-0.851,0-1.531-0.68-2.382-2.212
			c-1.19-2.21-2.892-4.422-4.422-7.654c-15.989,7.315-30.788,13.098-47.287,17.86c-1.701,0.511-1.19,1.701-1.531,3.912
			c-0.34,1.361-1.021,2.212-1.871,2.212c-0.851,0-1.701-0.511-2.212-1.871c-1.871-4.083-3.742-8.845-5.613-14.289
			c-0.17-0.51-0.17-0.851-0.17-1.021c0-0.511,0.17-0.68,0.51-0.68c0.51,0,1.191,0.34,1.871,0.34
			c8.165-0.17,16.159-1.361,23.984-2.551c0.17-6.803,0.17-15.138,0.17-23.814V79.873h-9.355c-4.763,0-10.376,0.34-12.417,0.851
			h-0.68c-0.68,0-1.02-0.17-1.531-1.021c-0.51-1.021-1.191-2.381-1.531-3.742c0-0.34-0.17-0.51-0.17-0.85
			c0-0.34,0.17-0.51,0.51-0.51s0.68,0.17,1.191,0.34c2.722,1.02,8.845,1.531,14.628,1.531h9.355c0-7.824,0-15.138-0.17-21.092
			h-1.191c-4.763,0-10.376,0.34-12.417,0.851h-0.68c-0.68,0-1.02-0.17-1.531-1.021c-0.17-0.34-0.34-0.68-0.51-1.021
			c-2.551,2.892-5.443,5.783-8.505,8.335c-0.68,0.51-1.191,0.851-1.531,0.851c-0.34,0-0.51-0.51-0.51-1.021
			c0-0.51,0.17-1.02,0.34-1.361c12.417-16.329,22.793-42.694,23.984-54.601V5.37c0-0.51,0.17-0.85,1.021-0.85h0.34
			c5.783,1.531,9.866,2.551,14.628,3.912c1.361,0.34,2.381,1.361,2.381,2.381c0,0.851-0.851,1.701-2.892,1.871
			c-2.041,0.17-3.402,0-4.252,1.701c-0.17,0.34-0.34,0.68-0.34,1.021c12.927,5.103,21.602,11.226,24.664,17.86
			c0.68,1.361,0.85,2.551,0.85,3.742c0,3.232-2.211,5.443-4.763,5.443c-1.701,0-3.402-1.021-4.763-3.402
			c-3.742-6.634-6.634-13.778-17.18-21.262c-4.082,8.505-10.716,21.602-20.752,33.339c3.232,0.51,7.995,0.851,12.417,0.851h12.417
			c0.85,0,1.361,0,2.381-0.851c0.851-0.85,3.572-4.422,5.273-6.463c0.34-0.51,0.68-0.68,1.021-0.68s0.68,0.17,1.361,0.68
			c1.871,1.531,7.144,5.953,9.866,8.505c0.51,0.34,0.68,0.85,0.68,1.19c0,0.51-0.68,1.021-1.701,1.021h-20.752
			c-0.17,6.124-0.17,13.268-0.17,21.092h5.613c1.19,0,1.871,0,2.721-1.021c0.851-1.02,4.593-5.443,5.783-6.974
			c0.51-0.51,0.851-0.851,1.191-0.851s0.68,0.34,1.191,0.68c2.721,2.211,8.505,7.144,10.206,9.015c0.68,0.68,0.85,1.19,0.85,1.531
			c0,0.68-0.68,1.021-2.041,1.021h-25.514c0,17.01,0,35.72,0.17,48.988c6.634-1.361,13.948-3.062,21.602-5.103
			c-0.17-0.341-0.34-0.851-0.51-1.191c0-0.17-0.17-0.34-0.17-0.511c0-1.19,2.211-0.85,3.572-1.19
			c10.716-3.061,25.685-13.438,38.272-23.473V84.636c0-10.036,0-18.881-0.17-23.984h-22.963c-4.763,0-10.376,0.34-12.417,0.851
			h-0.68c-0.68,0-1.021-0.17-1.531-1.021c-0.51-1.021-1.19-2.381-1.531-3.742c0-0.34-0.17-0.51-0.17-0.85s0.17-0.51,0.51-0.51
			s0.68,0.17,1.19,0.34c2.722,1.02,8.845,1.531,14.628,1.531h39.973c1.021-7.484,1.361-14.458,1.871-20.922h-30.618
			c-4.763,0-10.376,0.34-12.417,0.851h-0.68c-0.68,0-1.021-0.17-1.531-1.021c-0.51-1.021-1.19-2.381-1.531-3.742
			c0-0.34-0.17-0.51-0.17-0.85c0-0.34,0.17-0.51,0.51-0.51c0.34,0,0.68,0.17,1.19,0.34c2.722,1.02,8.845,1.531,14.628,1.531h30.788
			c0.68-5.953,0.85-10.376,1.361-17.01H264.04c-4.763,0-10.376,0.34-12.417,0.851h-0.68c-0.68,0-1.021-0.17-1.531-1.021
			c-0.51-1.02-1.19-2.381-1.531-3.742c0-0.34-0.17-0.51-0.17-0.851s0.17-0.51,0.51-0.51s0.68,0.17,1.19,0.34
			c2.722,1.021,8.845,1.531,14.628,1.531h35.38c1.701,0,2.041-0.34,2.722-1.191c0.68-1.021,2.892-2.892,3.742-4.082
			c0.34-0.68,0.68-1.021,1.361-1.021c0.34,0,0.851,0.17,1.701,0.851c2.211,1.701,5.443,4.082,7.654,5.783
			c1.02,0.85,1.871,1.701,1.871,2.551c0,0.51-0.51,1.19-2.041,1.871c-2.722,1.19-4.423,1.361-4.593,3.402
			c-1.021,9.865-1.871,21.432-3.232,36.571h4.082c0.851,0,1.361,0,2.381-0.85c0.851-0.851,4.082-5.613,5.783-8.165
			c0.34-0.51,0.51-0.68,0.851-0.68c0.51,0,0.851,0.17,1.531,0.68c2.211,1.701,10.376,8.335,12.247,10.206
			c0.51,0.51,0.68,0.85,0.68,1.19c0,0.68-0.68,1.021-1.701,1.021h-42.864v3.572c2.892,11.396,6.634,22.112,11.567,31.638
			c7.314-7.314,12.077-15.138,15.479-23.473c0.34-0.68,0.34-1.191,0.68-1.191s0.85,0.34,1.531,0.68
			c3.912,2.381,7.824,4.933,11.056,7.144c1.191,0.851,1.701,1.701,1.701,2.211c0,0.851-0.851,1.361-2.212,1.361
			c-0.34,0-1.02,0-1.531-0.17c-0.34-0.17-0.51-0.17-0.851-0.17c-1.19,0-2.381,0.851-3.402,1.701
			c-6.804,5.443-12.757,9.696-21.262,14.799c7.485,13.778,18.031,24.154,30.277,28.916c0.51,0.17,0.851,0.68,0.851,1.191
			c0,0.34-0.17,0.85-0.68,0.85c-4.933,1.021-7.654,4.763-7.995,9.865c-0.17,1.021-0.51,1.361-1.021,1.361c-0.34,0-0.51,0-0.68-0.17
			c-15.649-11.396-27.726-40.143-33.679-65.317c0,20.922,0.17,53.241,0.17,63.106v3.062c0,5.273-1.191,10.886-12.587,12.927H278.668
			z M193.96,115.593c-1.531-6.294,1.02-12.928-5.953-25.174c-0.17-0.34-0.34-0.851-0.34-1.191c0-0.51,0.34-0.85,0.68-0.85
			s0.851,0.17,1.361,0.68c8.165,7.654,13.438,15.989,13.438,23.814c0,4.422-2.551,6.633-4.933,6.633
			C196.341,119.505,194.64,118.315,193.96,115.593z M230.36,87.527c0-0.34,0-0.68,0.51-0.68c0.17,0,0.51,0.17,0.68,0.17
			c3.912,1.191,6.634,2.551,10.206,4.253c1.531,0.68,2.551,1.701,2.551,2.551c0,0.85-0.85,1.701-3.232,1.871
			c-1.701,0.17-1.701,0.851-2.552,2.892c-3.232,7.314-8.845,16.67-13.778,22.453c-0.51,0.51-1.021,0.85-1.361,0.85
			s-0.51-0.17-0.51-0.68c0-0.341,0.17-0.851,0.34-1.361c4.252-11.057,6.804-21.433,7.144-30.618V87.527z M263.359,94.161
			c-2.211-5.443-3.062-11.907-13.948-19.731c-0.51-0.34-0.68-0.851-0.68-1.361c0-0.34,0.17-0.68,0.85-0.68c0.34,0,0.68,0,1.191,0.17
			c7.314,2.211,18.541,6.463,21.943,15.819c0.34,1.02,0.51,2.041,0.51,3.062c0,3.912-2.551,6.634-5.273,6.634
			C266.251,98.073,264.55,96.883,263.359,94.161z"/>
		<path fill="#FFFFFF" d="M390.424,45.853c0-4.933,3.912-9.015,8.505-9.015c4.592,0,8.505,4.082,8.505,9.015
			c0,5.613-3.912,9.185-8.505,9.185C394.336,55.039,390.424,51.467,390.424,45.853z M390.424,113.892
			c0-5.613,3.912-9.696,8.505-9.696c4.592,0,8.505,4.083,8.505,9.696c0,4.933-3.912,9.186-8.505,9.186
			C394.336,123.078,390.424,118.825,390.424,113.892z"/>
		<path fill="#FFFFFF" d="M478.194,127.33V8.262h37.421v7.314h-29.596V127.33H478.194z"/>
		<path fill="#FFFFFF" d="M578.894,100.114c0.511,0,1.19,0.68,1.19,1.361c0,0.34-0.17,0.68-0.51,1.021
			c-14.799,10.376-30.617,19.731-44.055,25.855c-1.361,0.68-2.382,0.85-2.382,2.551v0.85c0,1.871-0.85,3.062-1.871,3.062
			c-0.85,0-1.701-0.68-2.211-2.041c-1.871-4.422-4.593-11.396-5.614-14.117c-0.17-0.68-0.34-1.021-0.34-1.191
			c0-0.68,0.68-0.511,2.382-0.68c6.464-1.021,13.268-2.551,20.071-4.592c0.171-16.16,0.171-35.381,0.171-52.56h-3.743
			c-4.763,0-10.375,0.34-12.417,0.851h-0.68c-0.68,0-1.02-0.17-1.531-1.021c-0.51-1.02-1.19-2.381-1.531-3.742
			c0-0.34-0.17-0.51-0.17-0.851c0-0.34,0.17-0.51,0.511-0.51c0.34,0,0.68,0.17,1.19,0.34c2.722,1.021,8.846,1.531,14.628,1.531
			h3.743c0-21.602,0-39.122-0.34-42.014c-0.34-2.892-0.68-4.593-0.68-5.443c0-0.68,0.17-0.851,0.85-0.851h0.851
			c4.252,0.51,8.335,1.191,12.077,1.871c2.041,0.34,3.061,1.19,3.061,2.041c0,0.851-1.02,1.871-3.232,2.551
			c-2.211,0.851-1.871,2.722-2.041,4.252c-0.17,3.062-0.34,18.541-0.34,37.592h1.19c0.851,0,1.361-0.17,2.211-1.191
			c1.361-1.871,4.763-6.634,5.954-8.335c0.34-0.51,0.68-0.851,1.021-0.851c0.34,0,0.85,0.34,1.36,0.851
			c2.722,2.551,8.335,7.995,10.206,10.036c0.68,0.851,1.021,1.361,1.021,1.871c0,0.68-0.68,1.02-2.211,1.02h-20.582
			c0,15.819,0,33.679,0.17,49.158c7.654-2.551,15.139-5.613,22.282-8.675H578.894z M645.232,111.681c-1.19,0-1.531-0.34-1.701-1.701
			c-0.68-7.654-4.592-7.654-11.056-11.056c-0.85-0.34-1.361-1.021-1.361-1.531c0-0.34,0.34-0.68,1.19-0.68
			c0.34,0,0.68,0.17,1.021,0.17c4.593,0.85,7.825,1.531,11.737,2.041h1.19c3.232,0,4.082-1.871,4.932-4.422
			c2.382-6.634,3.572-30.788,3.572-44.736c0-1.701,0-3.232,0-4.593l-24.664,7.654c0,22.963,0.511,50.519,0.68,65.658v1.02
			c0,3.062-0.85,4.083-6.293,4.253h-1.361c-3.402,0-4.253-1.191-4.253-3.743v-0.85c0.34-13.778,0.851-39.803,0.851-63.106
			l-22.113,6.974c0,25.174,0,59.023,0.17,69.06c0,3.912,1.701,4.932,6.804,5.613c2.721,0.34,11.396,0.68,20.411,0.68
			c9.865,0,20.411-0.34,24.154-0.851c12.247-1.871,11.396-2.041,16.839-34.189c0.17-1.19,0.851-1.871,1.361-1.871
			c0.68,0,1.19,0.68,1.19,1.871c0.34,26.196-0.34,27.386,4.763,30.277c1.701,1.021,2.722,2.722,2.722,4.593
			c0,3.061-2.722,6.634-9.525,8.505c-7.144,1.871-26.025,2.721-42.525,2.721c-10.886,0-20.752-0.34-25.514-0.85
			c-5.273-0.51-12.247-3.232-12.247-10.376v-0.34c0-13.269,0.511-45.927,0.511-71.611c-3.912,1.19-7.654,2.551-9.186,3.402
			c-0.17,0-0.51,0.17-0.68,0.17h-0.34c-0.511,0-0.851-0.17-1.361-0.68c-0.85-0.851-1.871-2.041-2.551-3.232
			c-0.17-0.34-0.34-0.68-0.34-0.851c0-0.51,0.51-0.51,1.701-0.51h1.19c2.721,0,7.144-0.85,11.567-1.871
			c0-16.159-0.171-28.916-0.511-30.788c-0.51-2.721-0.85-4.422-0.85-5.443c0-0.85,0.34-1.19,1.19-1.19
			c0.171,0,0.511,0.17,1.021,0.17c4.593,0.68,8.335,1.02,13.268,2.041c2.381,0.51,3.912,1.531,3.912,2.892
			c0,1.021-1.19,2.211-4.082,3.232c-2.551,0.851-2.892,2.892-2.892,5.103c0,4.763,0,12.077-0.17,20.752l22.113-6.974
			c0-20.582-0.17-38.272-0.34-41.334c-0.171-3.742-0.68-5.273-0.68-6.124c0-0.51,0.17-0.51,0.85-0.51h1.021
			c1.361,0,6.974,0.85,12.417,1.871c2.041,0.34,3.062,1.19,3.062,2.211c0,0.851-1.021,2.041-3.232,2.722
			c-2.041,0.68-2.211,2.381-2.211,3.912v0.51c-0.34,3.572-0.34,17.01-0.511,33.509l21.432-6.804c1.191-0.34,1.191-0.34,1.872-1.361
			c0.85-1.361,2.211-3.912,2.891-5.273c0.511-0.851,0.851-1.361,1.531-1.361c0.51,0,0.85,0,1.36,0.34
			c2.722,1.361,7.315,3.742,9.866,5.443c0.85,0.68,1.36,1.191,1.36,1.871c0,0.51-0.51,1.19-1.19,1.701
			c-1.871,1.701-3.061,1.871-3.402,4.593c-1.191,12.587-0.34,47.968-6.804,56.813c-3.061,4.252-7.485,5.952-13.097,6.463H645.232z"
			/>
		<path fill="#FFFFFF" d="M726.54,66.946c0,14.458,0,29.086,0.17,39.802c9.696-3.232,18.71-6.634,25.345-9.525
			c0.17-0.17,0.34-0.17,0.51-0.17c0.68,0,1.19,0.68,1.19,1.361c0,0.51-0.17,0.851-0.68,1.191
			c-13.607,9.865-34.019,20.922-46.776,25.855c-1.701,0.68-2.382,0.851-2.382,2.892c0,2.211-1.021,3.402-2.211,3.402
			c-0.85,0-1.871-0.51-2.551-1.871c-1.361-2.551-4.593-11.396-5.614-14.118c-0.17-0.68-0.34-1.02-0.34-1.19
			c0-0.68,0.68-0.51,2.382-0.68c6.464-0.68,13.268-2.041,20.071-3.912c0.17-5.442,0.17-12.077,0.17-19.561V66.946h-2.892
			c-4.763,0-10.376,0.34-12.417,0.85h-0.68c-0.68,0-1.021-0.17-1.531-1.02c-0.51-1.021-1.19-2.381-1.531-3.742
			c0-0.34-0.17-0.51-0.17-0.851c0-0.34,0.17-0.51,0.51-0.51c0.34,0,0.68,0.17,1.19,0.34c2.722,1.021,8.846,1.531,14.629,1.531h2.892
			c0-14.799,0-29.086-0.17-38.442h-4.763c-4.763,0-10.375,0.34-12.417,0.851h-0.68c-0.68,0-1.021-0.17-1.531-1.021
			c-0.511-1.021-1.19-2.381-1.531-3.742c0-0.34-0.17-0.51-0.17-0.85c0-0.34,0.17-0.51,0.511-0.51c0.34,0,0.68,0.17,1.19,0.34
			c2.721,1.02,8.845,1.531,14.628,1.531h16.16c0.85,0,1.531-0.17,2.211-1.19c1.19-1.701,4.932-6.634,6.124-8.335
			c0.34-0.51,0.85-0.851,1.19-0.851c0.51,0,0.85,0.34,1.531,0.851c2.722,2.211,9.696,7.995,11.397,10.036
			c0.68,0.851,1.02,1.361,1.02,1.871c0,0.68-0.68,1.021-2.211,1.021h-21.602c-0.17,9.355-0.17,23.643-0.17,38.442h1.361
			c1.19,0,1.701,0,2.892-1.191c0.68-1.02,4.253-6.463,5.443-8.165c0.34-0.51,0.68-0.85,1.19-0.85c0.511,0,1.021,0.34,1.531,0.85
			c2.721,2.551,7.824,7.824,9.525,9.866c0.68,0.85,1.021,1.361,1.021,1.871c0,0.68-0.68,1.021-2.211,1.021H726.54z M779.781,154.886
			c-1.19,0-1.531-0.68-1.701-1.871c-1.02-8.675-4.763-9.015-15.819-12.757c-1.021-0.34-1.701-1.021-1.701-1.531
			c0-0.51,0.51-0.85,1.531-0.85h0.511c3.742,0.34,12.927,1.02,18.03,1.02c3.402,0,3.743-1.361,3.743-3.742
			c0.34-8.335,0.34-25.685,0.51-43.205c-11.567,13.948-22.793,24.154-35.55,34.87c-0.68,0.51-1.19,2.381-1.361,3.912
			c-0.17,1.19-0.85,1.871-1.7,1.871c-0.851,0-1.701-0.851-2.551-2.892c-1.191-3.232-3.743-6.634-5.443-10.886
			c-0.17-0.34-0.17-0.511-0.17-0.85c0-0.341,0.34-0.511,1.021-0.511h1.531c16.5-7.485,28.917-15.649,44.225-29.257
			c0-15.989-0.17-31.298-0.17-45.586h-26.875c-4.763,0-10.376,0.34-12.418,0.85h-0.68c-0.68,0-1.02-0.17-1.531-1.02
			c-0.51-1.021-1.19-2.381-1.531-3.742c0-0.34-0.17-0.51-0.17-0.851c0-0.34,0.17-0.51,0.51-0.51c0.34,0,0.68,0.17,1.19,0.34
			c2.722,1.021,8.845,1.531,14.629,1.531h26.875c0-16.329-0.17-27.726-0.17-27.896c-0.51-3.572-1.021-5.273-1.021-6.124
			c0-0.51,0.17-0.68,0.68-0.68c0.34,0,0.851,0,1.701,0.17c1.871,0.34,6.464,1.021,12.417,2.382c2.041,0.51,3.062,1.531,3.062,2.551
			c0,1.02-1.021,2.211-3.232,2.892c-2.551,0.85-2.892,2.211-2.892,3.912c-0.17,5.783-0.34,13.608-0.34,22.793h27.385
			c1.191,0,1.871-0.17,2.722-1.021c1.871-1.871,4.932-5.103,6.974-7.654c0.34-0.51,0.68-0.68,1.021-0.68
			c0.51,0,0.85,0.17,1.361,0.68c2.891,2.551,7.654,6.464,11.056,9.526c0.68,0.51,0.85,1.02,0.85,1.531
			c0,0.51-0.68,1.021-2.041,1.021h-45.416c2.041,16.329,4.932,29.597,8.674,40.483c7.485-7.995,13.438-18.201,15.65-27.216
			c0.17-0.851,0-1.531,0.51-1.531c0.17,0,0.68,0.17,1.19,0.51c3.232,2.211,10.886,6.464,12.757,8.165
			c0.851,0.51,1.361,1.361,1.361,2.211c0,0.851-0.85,1.701-2.551,1.701h-0.51c-1.361-0.17-2.211-0.34-2.892-0.34
			c-0.851,0-1.191,0.17-1.871,1.02c-5.443,6.464-13.778,12.247-22.623,18.201c7.485,19.221,18.711,31.127,36.401,40.823
			c0.34,0.17,0.85,0.68,0.85,1.19c0,0.511-0.34,1.021-1.361,1.361c-4.082,1.361-6.124,2.041-8.164,7.995
			c-0.17,0.51-0.511,0.68-1.191,0.68c-0.34,0-1.02-0.17-1.531-0.68c-27.216-22.113-34.53-59.364-37.251-94.574h-1.36
			c0,13.778-0.17,30.107-0.17,46.776c0,16.84,0.17,34.19,0.17,49.669v1.361c0,6.293-0.511,12.416-14.629,14.458H779.781z
			 M771.786,79.192c0,4.593-3.232,7.484-6.293,7.484c-2.211,0-4.253-1.531-5.103-4.763c-1.701-6.804-0.511-15.309-10.036-25.684
			c0-0.17-0.17-0.17-0.17-0.34c0-0.51,0.511-1.191,1.191-1.191c0.17,0,0.51,0,0.68,0.17c11.396,6.634,18.71,15.649,19.731,22.963
			V79.192z M808.698,7.071c10.206,2.551,17.35,8.505,19.391,14.118c0.34,0.851,0.511,1.701,0.511,2.552
			c0,3.232-2.551,5.443-4.933,5.443c-1.701,0-3.402-0.851-4.422-3.062c-2.382-4.763-1.701-11.056-11.397-17.69
			c-0.34-0.17-0.51-0.51-0.51-0.851c0-0.17,0.34-0.51,0.85-0.51H808.698z"/>
		<path fill="#FFFFFF" d="M860.579,150.803v-7.314h29.597V31.736H898v119.068H860.579z"/>
	</g>
</g>
</svg>
