<?xml version="1.0" encoding="utf-8"?>
<!-- Generator: Adobe Illustrator 26.2.1, SVG Export Plug-In . SVG Version: 6.00 Build 0)  -->
<svg version="1.1" xmlns="http://www.w3.org/2000/svg" xmlns:xlink="http://www.w3.org/1999/xlink" x="0px" y="0px"
	 viewBox="0 0 1136 257" style="enable-background:new 0 0 1136 257;" xml:space="preserve">
<style type="text/css">
	.st0{display:none;}
	.st1{display:inline;}
	.st2{display:inline;fill:#FFFFFF;}
	.st3{font-family:'MatisseProN-M-90ms-RKSJ-H';}
	.st4{font-size:190px;}
	.st5{letter-spacing:5;}
	.st6{letter-spacing:-57;}
	.st7{font-size:210px;}
	.st8{letter-spacing:-73;}
	.st9{font-family:'RyuminPr6N-Light-90ms-RKSJ-H';}
	.st10{font-size:214px;}
	.st11{font-family:'SoukouMincho';}
	.st12{font-size:228px;}
	.st13{letter-spacing:16;}
	.st14{letter-spacing:7;}
	.st15{letter-spacing:-107;}
	.st16{fill:#FFFFFF;}
</style>
<g id="レイヤー_2" class="st0">
</g>
<g id="レイヤー_1">
	<g id="レイヤー_2_00000079454192701221804720000015688287595952036738_" class="st0">
		<rect class="st1" width="1136" height="257"/>
	</g>
	<g id="レイヤー_1_00000085948086480468725110000010264994286657954214_">
		<g id="レイヤー_1_00000057123622786692084040000015049700088695809162_" class="st0">
			<text transform="matrix(1 0 0 1 -4.1094 182.9158)" class="st2 st3 st4 st5">記</text>
			<text transform="matrix(1 0 0 1 193.4906 182.9158)" class="st2 st3 st4 st6">録</text>
			<text transform="matrix(1 0 0 1 326.4906 188.1169)" class="st2 st3 st7 st8">：</text>
			<text transform="matrix(1 0 0 1 353.8906 164.1559)" class="st2 st9 st10">『</text>
			<text transform="matrix(1 0 0 1 569.6026 192.796)" class="st2 st11 st12 st13">地</text>
			<text transform="matrix(1 0 0 1 815.8428 192.796)" class="st2 st11 st12 st14">球</text>
			<text transform="matrix(1 0 0 1 1052.9626 207.1559)" class="st2 st9 st10 st15">』</text>
		</g>
		<g id="レイヤー_3">
			<g>
				<g>
					<g>
						<path class="st16" d="M23.6,89.3c-5.3,0-11.6,0.4-13.9,0.9H9c-0.8,0-1.1-0.2-1.7-1.1C6.7,88,6,86.4,5.6,84.9
							c0-0.4-0.2-0.6-0.2-0.9s0.2-0.6,0.6-0.6s0.8,0.2,1.3,0.4c3,1.1,9.9,1.7,16.3,1.7h31.7c1,0,1.9-0.6,2.5-1.3
							c2.8-3.4,3.8-4.9,6.8-8.7c0.4-0.6,0.8-0.8,1.1-0.8s0.9,0.4,1.5,0.8c4.8,3.6,11,9.3,12.9,11c0.6,0.6,0.9,1.1,0.9,1.5
							c0,0.8-0.9,1.3-2.7,1.3L23.6,89.3L23.6,89.3z M30.5,65.7c-5.3,0-11.6,0.4-13.9,0.9h-0.8c-0.8,0-1.1-0.2-1.7-1.1
							c-0.6-1.1-1.3-2.7-1.7-4.2c0-0.4-0.2-0.6-0.2-1s0.2-0.6,0.6-0.6s0.8,0.2,1.3,0.4c3,1.1,9.9,1.7,16.3,1.7h19c1,0,1.5,0,2.7-1
							c1-1,4.4-5.7,6.3-8c0.4-0.6,0.8-0.8,1.1-0.8s0.8,0.2,1.5,0.8c2.1,1.7,10.8,9.3,11.6,10.3c0.6,0.6,0.8,0.9,0.8,1.3
							c0,0.8-0.9,1.1-2.1,1.1H30.5V65.7z M30.5,113.4c-5.3,0-11.6,0.4-13.9,0.9h-0.8c-0.8,0-1.1-0.2-1.7-1.1
							c-0.6-1.1-1.3-2.7-1.7-4.2c0-0.4-0.2-0.6-0.2-0.9s0.2-0.6,0.6-0.6s0.8,0.2,1.3,0.4c3,1.1,9.9,1.7,16.3,1.7h20.9
							c1,0,1.5,0,2.7-0.9c1-0.9,4-4.8,5.9-7c0.4-0.6,0.8-0.8,1.1-0.8s0.8,0.2,1.5,0.8c2.1,1.7,10.3,7.8,12,9.3
							c0.6,0.4,0.8,0.8,0.8,1.1c0,0.8-0.9,1.3-2.1,1.3C73.2,113.4,30.5,113.4,30.5,113.4z M30.5,137.7c-5.3,0-11.6,0.4-13.9,0.9
							h-0.8c-0.8,0-1.1-0.2-1.7-1.1c-0.6-1.1-1.3-2.7-1.7-4.2c0-0.4-0.2-0.6-0.2-0.9s0.2-0.6,0.6-0.6s0.8,0.2,1.3,0.4
							c3,1.1,9.9,1.7,16.3,1.7h20.9c1,0,1.5,0,2.7-0.9c1-0.9,4-4.8,5.9-7c0.4-0.6,0.8-0.8,1.1-0.8s0.8,0.2,1.5,0.8
							c2.3,1.7,10.1,7.6,12,9.3c0.6,0.6,0.8,0.9,0.8,1.3c0,0.8-0.8,1.1-2.1,1.1H30.5L30.5,137.7z M68.5,205.9c0,4-1.7,5.1-6.5,5.1
							h-0.4c-3.8,0-5.1-1.1-5.1-5.1v-0.8c0-1.3,0-4.6,0.2-5.9h-30V210c0,4.8-1.1,5.7-6.1,5.7h-0.8c-3.4,0-4.9-1.1-4.9-4.6V210
							c0.2-9.5,1.1-22.6,1.1-33.8c0-9.5-0.4-17.5-1.5-20.5c-0.6-1.5-0.8-2.5-0.8-3c0-0.8,0.2-0.9,0.8-0.9c0.4,0,0.9,0.2,1.5,0.6
							c3.2,1.3,13.1,6.6,13.1,6.6h24.5c1.7,0,2.3-0.4,2.7-1.1c1-1.1,3.6-4.2,4.6-5.3c0.4-0.6,0.8-0.9,1.3-0.9c0.4,0,1,0.2,1.7,0.8
							c2.5,1.9,7,5.3,9.1,7.2c0.8,0.8,1.3,1.7,1.3,2.5s-0.6,1.7-2.3,2.5c-2.3,1.3-3.6,1.3-3.6,3.4c-0.2,6.6-0.2,13.3-0.2,20.5
							c0,5.1,0.2,10.6,0.2,16.7L68.5,205.9L68.5,205.9z M56.7,195.5c0.2-7.8,0.4-14.2,0.4-20.3c0-4.2-0.2-8.2-0.2-12.4h-30
							c-0.2,6.5-0.2,13.1-0.2,21.5v11.2H56.7z M158.3,131.8c0,4.4-1.9,5.5-6.5,5.5H151c-3.8,0-5.5-1.3-5.5-5.5v-0.6
							c0-1.7,0.2-3.4,0.2-5.3h-42.2v18.2c0,16.9,0,36.9,0.2,47.5c0,5.5,1.9,6.1,7.2,7.6c4.2,1.1,12,1.7,20.1,1.7
							c8.7,0,18.1-0.8,23.4-2.1c7-1.9,8.4-2.7,12-28.7c0.2-1.7,0.8-2.3,1.3-2.3c0.8,0,1.5,0.9,1.5,2.3c0.6,22.6-0.6,23.2,4.4,26.2
							c1.7,1,2.5,2.7,2.5,4.6c0,3.6-3,7.6-10.3,8.9c-11.2,1.9-23.9,2.9-35.5,2.9c-9.7,0-18.6-0.6-25.5-1.9
							c-7.4-1.5-13.1-4.4-13.1-13.7v-0.4c0-10.8,0.6-24.9,0.6-38.4c0-18.4-0.6-35.3-2.1-39.7c-0.6-1.3-0.8-2.3-0.8-2.8
							c0-0.8,0.4-1.1,0.9-1.1c0.4,0,0.9,0.2,1.3,0.4c6.1,2.8,14.1,7,14.1,7h39.9c0.2-9.3,0.4-20.9,0.4-31.3s-0.2-19.6-0.4-24.1
							h-45.4c-5.3,0-11.6,0.4-13.9,0.9h-0.8c-0.8,0-1.1-0.2-1.7-1.1c-0.6-1.1-1.3-2.7-1.7-4.2c0-0.4-0.2-0.6-0.2-1s0.2-0.6,0.6-0.6
							s0.8,0.2,1.3,0.4c3,1.1,9.9,1.7,16.3,1.7h42.2c1.7,0,2.1-0.4,2.9-1.3c0.8-1.1,3.2-4.2,4.4-5.5c0.6-0.6,0.9-1,1.3-1
							c0.6,0,0.9,0.2,1.7,0.8c2.9,1.9,8,5.7,10.1,7.4c0.9,0.8,1.5,1.5,1.5,2.3c0,0.9-0.8,1.9-2.7,2.7c-2.1,1.5-3.6,1.5-3.6,3.6
							c-0.2,4.9-0.4,16.5-0.4,28.9c0,10.8,0.4,22.2,0.6,30.6L158.3,131.8L158.3,131.8z"/>
						<path class="st16" d="M310,217.9c-1.3,0-1.9-0.8-2.1-1.9c-1.3-8.4-4.4-8-14.1-11.6c-0.8-0.4-1.3-0.9-1.3-1.7
							c0-0.6,0.4-0.9,1.5-0.9h0.2c4.6,0.6,11.4,1.3,16.1,1.3c3,0,3-1.1,3-3.4c0.2-5.7,0.4-17.5,0.4-31v-9.9
							c-11.2,13.1-22.4,22.8-33.6,31.7c-0.8,0.6-1,2.5-1.1,4.4c-0.4,1.9-1.1,2.9-2.1,2.9s-1.7-0.8-2.7-2.5c-1.3-2.5-3.2-4.9-4.9-8.6
							c-17.9,8.2-34.4,14.6-52.8,19.9c-1.9,0.6-1.3,1.9-1.7,4.4c-0.4,1.5-1.1,2.5-2.1,2.5s-1.9-0.6-2.5-2.1c-2.1-4.6-4.2-9.9-6.3-16
							c-0.2-0.6-0.2-0.9-0.2-1.1c0-0.6,0.2-0.8,0.6-0.8c0.6,0,1.3,0.4,2.1,0.4c9.1-0.2,18.1-1.5,26.8-2.9c0.2-7.6,0.2-16.9,0.2-26.6
							v-30H223c-5.3,0-11.6,0.4-13.9,0.9h-0.8c-0.8,0-1.1-0.2-1.7-1.1c-0.6-1.1-1.3-2.7-1.7-4.2c0-0.4-0.2-0.6-0.2-0.9
							c0-0.4,0.2-0.6,0.6-0.6s0.8,0.2,1.3,0.4c3,1.1,9.9,1.7,16.3,1.7h10.4c0-8.7,0-16.9-0.2-23.6h-1.3c-5.3,0-11.6,0.4-13.9,0.9
							h-0.8c-0.8,0-1.1-0.2-1.7-1.1c-0.2-0.4-0.4-0.8-0.6-1.1c-2.9,3.2-6.1,6.5-9.5,9.3c-0.8,0.6-1.3,0.9-1.7,0.9s-0.6-0.6-0.6-1.1
							s0.2-1.1,0.4-1.5c13.9-18.2,25.5-47.7,26.8-61v-1.1c0-0.6,0.2-1,1.1-1h0.4c6.5,1.7,11,2.8,16.3,4.4c1.5,0.4,2.7,1.5,2.7,2.7
							c0,1-0.9,1.9-3.2,2.1s-3.8,0-4.8,1.9c-0.2,0.4-0.4,0.8-0.4,1.1c14.4,5.7,24.1,12.5,27.5,20c0.8,1.5,1,2.8,1,4.2
							c0,3.6-2.5,6.1-5.3,6.1c-1.9,0-3.8-1.1-5.3-3.8c-4.2-7.4-7.4-15.4-19.2-23.8c-4.6,9.5-12,24.1-23.2,37.2
							c3.6,0.6,8.9,0.9,13.9,0.9h13.9c0.9,0,1.5,0,2.7-0.9c0.9-0.9,4-4.9,5.9-7.2c0.4-0.6,0.8-0.8,1.1-0.8s0.8,0.2,1.5,0.8
							c2.1,1.7,8,6.7,11,9.5c0.6,0.4,0.8,0.9,0.8,1.3c0,0.6-0.8,1.1-1.9,1.1h-23.2c-0.2,6.8-0.2,14.8-0.2,23.6h6.3
							c1.3,0,2.1,0,3-1.1s5.1-6.1,6.5-7.8c0.6-0.6,1-0.9,1.3-0.9s0.8,0.4,1.3,0.8c3,2.5,9.5,8,11.4,10.1c0.8,0.8,1,1.3,1,1.7
							c0,0.8-0.8,1.1-2.3,1.1h-28.5c0,19,0,39.9,0.2,54.7c7.4-1.5,15.6-3.4,24.1-5.7c-0.2-0.4-0.4-0.9-0.6-1.3
							c0-0.2-0.2-0.4-0.2-0.6c0-1.3,2.5-0.9,4-1.3c12-3.4,28.7-15,42.8-26.2v-14.2c0-11.2,0-21.1-0.2-26.8h-25.6
							c-5.3,0-11.6,0.4-13.9,0.9h-0.8c-0.8,0-1.1-0.2-1.7-1.1c-0.6-1.1-1.3-2.7-1.7-4.2c0-0.4-0.2-0.6-0.2-0.9s0.2-0.6,0.6-0.6
							s0.8,0.2,1.3,0.4c3,1.1,9.9,1.7,16.3,1.7h44.6c1.1-8.4,1.5-16.2,2.1-23.4h-34.2c-5.3,0-11.6,0.4-13.9,0.9h-0.8
							c-0.8,0-1.1-0.2-1.7-1.1c-0.6-1.1-1.3-2.7-1.7-4.2c0-0.4-0.2-0.6-0.2-0.9s0.2-0.6,0.6-0.6s0.8,0.2,1.3,0.4
							c3,1.1,9.9,1.7,16.3,1.7h34.4c0.8-6.7,1-11.6,1.5-19h-42.8c-5.3,0-11.6,0.4-13.9,1H279c-0.8,0-1.1-0.2-1.7-1.1
							c-0.6-1.1-1.3-2.7-1.7-4.2c0-0.4-0.2-0.6-0.2-1s0.2-0.6,0.6-0.6s0.8,0.2,1.3,0.4c3,1.1,9.9,1.7,16.3,1.7h39.5
							c1.9,0,2.3-0.4,3-1.3c0.8-1.1,3.2-3.2,4.2-4.6c0.4-0.8,0.8-1.1,1.5-1.1c0.4,0,1,0.2,1.9,1c2.5,1.9,6.1,4.6,8.5,6.5
							c1.1,1,2.1,1.9,2.1,2.8c0,0.6-0.6,1.3-2.3,2.1c-3,1.3-4.9,1.5-5.1,3.8c-1.1,11-2.1,23.9-3.6,40.9h4.6c1,0,1.5,0,2.7-0.9
							c1-0.9,4.6-6.3,6.5-9.1c0.4-0.6,0.6-0.8,1-0.8c0.6,0,1,0.2,1.7,0.8c2.5,1.9,11.6,9.3,13.7,11.4c0.6,0.6,0.8,0.9,0.8,1.3
							c0,0.8-0.8,1.1-1.9,1.1h-47.9v4c3.2,12.7,7.4,24.7,12.9,35.3c8.2-8.2,13.5-16.9,17.3-26.2c0.4-0.8,0.4-1.3,0.8-1.3
							s1,0.4,1.7,0.8c4.4,2.7,8.7,5.5,12.4,8c1.3,0.9,1.9,1.9,1.9,2.5c0,0.9-1,1.5-2.5,1.5c-0.4,0-1.1,0-1.7-0.2
							c-0.4-0.2-0.6-0.2-1-0.2c-1.3,0-2.7,0.9-3.8,1.9c-7.6,6.1-14.2,10.8-23.8,16.5c8.4,15.4,20.1,27,33.8,32.3
							c0.6,0.2,1,0.8,1,1.3c0,0.4-0.2,0.9-0.8,0.9c-5.5,1.1-8.5,5.3-8.9,11c-0.2,1.1-0.6,1.5-1.1,1.5c-0.4,0-0.6,0-0.8-0.2
							c-17.5-12.7-31-44.8-37.6-73c0,23.4,0.2,59.5,0.2,70.5v3.4c0,5.9-1.3,12.2-14.1,14.4L310,217.9L310,217.9z M215.3,174.4
							c-1.7-7,1.1-14.4-6.6-28.1c-0.2-0.4-0.4-0.9-0.4-1.3c0-0.6,0.4-0.9,0.8-0.9c0.4,0,0.9,0.2,1.5,0.8c9.1,8.6,15,17.9,15,26.6
							c0,4.9-2.9,7.4-5.5,7.4C218,178.7,216.1,177.4,215.3,174.4z M256,143c0-0.4,0-0.8,0.6-0.8c0.2,0,0.6,0.2,0.8,0.2
							c4.4,1.3,7.4,2.9,11.4,4.8c1.7,0.8,2.9,1.9,2.9,2.9c0,0.9-1,1.9-3.6,2.1c-1.9,0.2-1.9,0.9-2.9,3.2
							c-3.6,8.2-9.9,18.6-15.4,25.1c-0.6,0.6-1.1,0.9-1.5,0.9s-0.6-0.2-0.6-0.8c0-0.4,0.2-0.9,0.4-1.5c4.8-12.4,7.6-23.9,8-34.2
							L256,143L256,143z M292.9,150.4c-2.5-6.1-3.4-13.3-15.6-22c-0.6-0.4-0.8-0.9-0.8-1.5c0-0.4,0.2-0.8,1-0.8c0.4,0,0.8,0,1.3,0.2
							c8.2,2.5,20.7,7.2,24.5,17.7c0.4,1.1,0.6,2.3,0.6,3.4c0,4.4-2.9,7.4-5.9,7.4C296.1,154.8,294.2,153.5,292.9,150.4z"/>
						<path class="st16" d="M421,92.8c0-6.1,4.8-11.1,10.5-11.1s10.5,5,10.5,11.1c0,6.9-4.8,11.3-10.5,11.3
							C425.8,104.1,421,99.7,421,92.8z M421,176.8c0-6.9,4.8-12,10.5-12s10.5,5,10.5,12c0,6.1-4.8,11.3-10.5,11.3
							S421,182.8,421,176.8z"/>
						<path class="st16" d="M562.8,29.6h-37.2v171h-24.8V5.4h62.1L562.8,29.6L562.8,29.6z M556.3,11.8h-49.2v182.1h12V23.1h37.2
							V11.8z"/>
						<path class="st16" d="M627.5,169.7c1.4,0.3,3.1,0.1,5.2-0.7c2.1-0.8,4.2-1.6,6.2-2.5s3.8-1.7,5.4-2.3c1.6-0.6,2.6-0.5,3.1,0.5
							c0,0.3-0.3,0.8-0.9,1.4c-2,2-3.9,3.9-5.8,5.8c-1.9,1.9-3.9,3.8-6,5.6c-4.4,3.8-8.8,7.4-13.2,10.8c-4.4,3.4-8.8,7-13.2,10.8
							c-0.6,0.5-1.9,1.6-3.8,3.5c-1.9,1.9-4,3.9-6.2,5.9c-2.2,2.1-4.2,3.9-5.9,5.5s-2.8,2.4-3.1,2.4c-1.1,0-2.5-1.4-4.2-4.1
							c-1.7-2.7-3.4-5.9-5-9.5s-3-7-4.2-10.4c-1.2-3.3-1.8-5.6-1.8-6.8l0.9-0.9c0.9-0.1,2.7-0.5,5.2-1c2.6-0.5,5.2-1.2,8-1.9
							c2.7-0.8,5.2-1.6,7.3-2.4c2.1-0.8,3.2-1.7,3.2-2.6V33.3c0-1.4,0.7-2.1,2.1-2.1c0.9,0,2.9,0.1,5.8,0.3s6.1,0.5,9.5,0.9
							c3.3,0.4,6.5,0.8,9.3,1.1c2.9,0.4,4.7,0.6,5.5,0.8c0.8,0.5,1.2,0.8,1.4,0.9c-0.5,1.2-1.4,2.3-2.7,3.3c-1.4,1-2.1,2.1-2.1,3.3
							v47.9l0.7,1.6c0.8,0.8,1.6,0.5,2.6-0.7s1.9-2.8,2.8-4.8c0.9-2,1.8-3.9,2.6-5.8s1.5-3.1,1.9-3.5l1.1-0.5c0.5,0.3,1.4,1.3,2.8,3
							c1.4,1.7,3,3.6,4.7,5.8c1.7,2.2,3.3,4.3,4.8,6.3s2.7,3.3,3.4,4.1c0.6,0,1.3-0.1,1.9-0.5c0.7-0.3,1-0.8,1-1.6V48.4
							c0-1.7,0.7-2.5,2.1-2.5c1.8,0,3.6,0.2,5.4,0.5c1.7,0.3,3.5,0.6,5.1,0.9c3.3,0.5,6.7,0.8,10,1s6.7,0.6,10,1.3l0.9,0.7
							c-0.3,1.5-1.2,2.8-2.6,3.8c-1.4,1-2.2,2.1-2.2,3.3v39.9c0,1.4,0.8,2.1,2.3,2.1c0.9,0,2.2-0.1,3.8-0.3s3.2-0.6,4.8-1.3
							c1.6-0.6,3-1.3,4.2-2.2c1.2-0.8,1.8-1.9,1.8-3.1V28.3c0-1.1,0.5-1.6,1.4-1.6c5,0,10,0.3,14.9,1s9.9,1.3,14.9,1.9
							c1.1,0.8,1.5,1.5,1.3,2.2s-0.7,1.4-1.5,2.2s-1.6,1.5-2.4,2.3c-0.8,0.8-1.3,1.5-1.3,2.3v43.1c0,0.8,0.3,1.2,0.8,1.4
							c0.5,0.2,1.1,0.2,1.7,0.2c2.4,0,4.9-0.6,7.5-1.8c2.6-1.2,5.1-2.7,7.5-4.5s4.7-3.7,6.8-5.7c2.1-2.1,4-3.9,5.5-5.6l1.4-0.7
							l1.4,0.5c0.6,0.9,2,2.2,4.2,4c2.2,1.7,4.5,3.6,6.8,5.5c2.4,1.9,4.4,3.7,6.3,5.4s2.7,2.8,2.7,3.4c0,0.9-0.3,1.5-0.9,1.8
							c-0.6,0.3-1.3,0.7-2.1,1.3c-0.8,0.5-1.4,1.4-2.1,2.5c-0.6,1.1-0.9,2.9-0.9,5.4c0,4.1,0.2,8.2,0.5,12.3
							c0.3,4.1,0.5,8.2,0.5,12.3c0,5.8-0.4,12.1-1.1,18.9c-0.8,6.8-2.4,13.2-4.8,19.1c-2.4,5.9-5.9,10.8-10.5,14.7
							c-4.6,4-10.6,5.9-18,5.9c-1.5,0-2.3-0.8-2.3-2.3c0-1.4,0-3.3-0.1-5.8s-0.4-5-0.9-7.5s-1.3-4.7-2.4-6.5
							c-1.1-1.8-2.5-2.7-4.3-2.7c-1.2,0-2.2,0.2-3,0.6c-0.8,0.4-1.1,1.3-1.1,2.6v25.8c0,1.4-1,2.6-3.1,3.5c-2.1,1-4.4,1.8-7.1,2.5
							c-2.7,0.7-5.3,1.2-7.9,1.5c-2.6,0.3-4.4,0.5-5.5,0.5c-1.5,0-2.3-0.8-2.3-2.3c0-9.6,0-19.1,0.1-28.6s0.1-19.1,0.1-28.6
							c0-4.4,0-8.9,0.1-13.5s0-9.1-0.3-13.7c0-0.8,0-1.4-0.1-1.9s-0.1-1.2-0.1-1.9c-0.8-0.8-1.7-1.1-3-1.1c-0.6,0-1.6,0.2-2.9,0.7
							c-1.3,0.5-2.7,1-4.1,1.6c-1.4,0.6-2.8,1.2-4.1,1.8c-1.3,0.6-2.2,1.1-2.6,1.4l-0.7,1.6v90.4c0,1.2,0.4,2.3,1.1,3.2
							c0.8,0.9,1.7,1.7,2.7,2.3c1.1,0.6,2.2,1.1,3.5,1.5s2.4,0.6,3.3,0.6H749c3.5,0,6.4-0.5,8.8-1.5c2.4-1,4.4-2.4,6.2-4.1
							c1.7-1.7,3.3-3.8,4.7-6.2s2.7-4.9,4.1-7.6c0.1-0.3,0.6-1,1.4-2.2c0.8-1.1,1.3-1.7,1.6-1.7s0.5,0.2,0.7,0.7
							c0.1,0.5,0.3,0.8,0.5,1.1c0.5,2.6,0.6,5.2,0.5,7.8c-0.2,2.6-0.2,5.2-0.2,7.8c0,1.2,0.7,2.3,2.1,3.2c1.4,0.9,2.8,1.9,4.4,2.8
							c1.6,1,3.1,2.1,4.4,3.4c1.4,1.3,2.1,3,2.1,5.1c0,4.5-1.6,8.1-4.8,10.9c-2.4,2-5.2,3.5-8.3,4.5c-3.1,1.1-6.4,1.8-9.8,2.3
							c-3.4,0.4-6.8,0.7-10.3,0.8c-3.4,0.1-6.6,0.1-9.5,0.1c-8.7,0-17.3,0-25.9,0.1c-8.6,0.1-17.2,0.1-25.9,0.1
							c-2.6,0-5.4,0-8.4-0.1s-6-0.4-8.9-1s-5.7-1.5-8.3-2.7c-2.7-1.2-4.9-2.9-6.7-5c-0.9-1.1-1.7-2.3-2.5-3.8
							c-0.8-1.4-1.3-2.9-1.6-4.2c-0.6-2.6-0.9-5.2-0.8-8c0.1-2.7,0.1-5.4,0.1-8c-0.2-9.7-0.3-19.4-0.6-29.1
							c-0.2-9.7-0.3-19.3-0.3-29.1c0-1.5,0.1-3.3,0.2-5.5c0.1-2.1,0.3-4.3,0.3-6.6c0.1-2.3,0.1-4.5,0.1-6.6s-0.2-3.8-0.5-5
							c-0.3-1.5-1-2.3-2.1-2.3c-0.5,0-1.5,0.4-3.1,1.1c-1.6,0.8-3.3,1.6-5.1,2.4s-3.6,1.6-5.4,2.4c-1.7,0.8-3,1.1-3.8,1.1
							c-1.1,0-1.6-0.5-1.6-1.4c0-1.4,1.1-2.3,3.3-2.8s4.6-1.1,7.2-1.8c2.6-0.7,5-1.6,7.2-2.6c2.2-1.1,3.3-2.9,3.3-5.5
							c0-0.8-0.3-1.8-1-3.2c-0.7-1.4-1.4-2.1-2.2-2.1h-25.1c-1.5,0-2.3,0.8-2.3,2.3c0,1.7-0.1,4.3-0.2,8c-0.2,3.6-0.3,7.8-0.5,12.3
							c-0.2,4.6-0.3,9.3-0.5,14.2s-0.3,9.5-0.3,13.8c-0.1,4.3-0.1,7.9,0,10.9s0.3,4.9,0.6,5.7L627.5,169.7z M578.7,99l0.9-0.7
							c0.6,0,1.6,0,3.1-0.1c1.4-0.1,3-0.1,4.6-0.1s3.1,0.1,4.4,0.2c1.4,0.2,2.2,0.5,2.5,0.9c0,0.3-0.6,0.5-1.9,0.7
							c-1.3,0.2-2.7,0.2-4.3,0.2s-3.2,0-4.8-0.1s-2.8-0.1-3.5-0.1L578.7,99z M734.7,149.8c3.8-0.5,6.9-1.9,9.3-4.2
							c2.4-2.4,4.3-5.2,5.5-8.6c1.2-3.3,2.1-6.8,2.5-10.5s0.7-7.1,0.7-10.3c0-2.1,0-4.7,0-7.6c0-3-0.1-6-0.2-9c-0.2-3-0.4-6-0.7-8.9
							s-0.7-5.3-1.1-7.3c-0.3-0.8-0.6-1.3-0.8-1.6c-0.2-0.3-0.7-0.5-1.5-0.5c-0.9,0-2.4,0.2-4.3,0.5c-2,0.3-4,0.8-5.9,1.5
							c-2,0.7-3.7,1.5-5.1,2.5c-1.4,1-2.2,2.1-2.2,3.3v56.3c0,0.5,0.3,1.1,0.9,2.1c0.6,0.9,1.1,1.5,1.4,1.8L734.7,149.8z"/>
						<path class="st16" d="M872.6,184.9c-3.6,0.3-7.5,2-11.5,5s-7.8,6.3-11.3,9.9c-3.5,3.6-6.5,6.8-9,9.7s-4.1,4.3-4.9,4.3
							c-0.5,0-1.4-1.3-3-4c-1.5-2.7-3.2-5.7-4.9-9s-3.3-6.6-4.8-9.8c-1.4-3.2-2.4-5.2-2.9-6.2c1.5-0.6,3.5-1.3,5.8-1.9
							c2.4-0.7,4.7-1.4,7.1-2.1c2.4-0.7,4.6-1.4,6.7-2.2c2.1-0.8,3.6-1.6,4.6-2.5c0.2-1.1,0.3-3.6,0.6-7.6c0.2-4,0.4-9,0.6-14.8
							c0.1-5.9,0.3-12.3,0.3-19.4c0.1-7.1,0.1-14.2,0.2-21.4c0.1-7.2,0.1-14.2,0.1-21.1s0-12.9,0-18.2c0-5.3-0.1-9.7-0.2-13
							c-0.2-3.3-0.3-5.2-0.5-5.5c-0.6-1.1-2.1-1.5-4.3-1.4c-2.3,0.2-4.6,0.3-7.1,0.6c-2.4,0.2-4.6,0.3-6.6,0.1c-2-0.1-3-1.1-3-2.7
							c0-0.5,0.3-0.8,0.8-1s0.9-0.3,1.3-0.3H869c1.1,0,2.3-1,3.6-3c1.4-2,2.7-4.2,4.1-6.6c1.4-2.4,2.6-4.6,3.8-6.6c1.1-2,2-3,2.6-3
							c0.5,0,1.6,0.9,3.5,2.6c1.9,1.7,4,3.8,6.3,6c2.3,2.3,4.4,4.5,6.5,6.6s3.4,3.5,4,4.1l0.7,1.6c0,0.9-0.8,1.5-2.3,1.7
							s-3.4,0.3-5.6,0.2c-2.2-0.1-4.6-0.2-7.3-0.5c-2.7-0.2-5.1-0.4-7.3-0.5s-4.1,0.1-5.6,0.5s-2.3,1.1-2.3,2.2v52.7l0.9,1.6
							c1.5,0.8,2.7,0.5,3.5-0.7s1.6-2.7,2.3-4.6c0.7-1.8,1.4-3.7,2.1-5.6c0.7-1.9,1.7-3.1,3.1-3.5c0.9,0.2,2,1,3.2,2.6
							s2.5,3.3,4,5.2c1.4,1.9,3,3.6,4.6,5.1s3.2,2.3,4.9,2.3c0.5,0,0.8-0.3,0.9-0.8c0.1-0.5,0.2-0.9,0.2-1.3c0-0.6-0.2-1.7-0.7-3.2
							s-0.8-3.1-1.1-4.7s-0.4-3-0.3-4.3c0.1-1.3,0.7-1.9,1.9-1.9c3.3,0,6.8,1,10.4,3c3.6,2,6.8,4.5,9.7,7.5s5.2,6.3,7.1,9.9
							c1.8,3.6,2.7,7,2.7,10.4c0,4-0.6,7-1.9,9.1c-1.3,2.1-2.9,3.7-4.9,4.7s-4.1,1.4-6.5,1.4c-2.4-0.1-4.5-0.5-6.5-1.1
							c-2-0.7-3.6-1.5-4.9-2.4c-1.3-0.9-1.9-1.7-1.9-2.5c0-0.6,0.1-1.8,0.2-3.6c0.1-1.8,0.2-3.7,0.2-5.7s-0.2-3.7-0.6-5.1
							c-0.4-1.4-1.1-2.2-2.2-2.2h-28.3c-1.5,0-2.3,0.8-2.3,2.3v43.8c0,1.5,0.8,2.1,2.5,1.8s3.6-0.9,5.8-1.8c2.2-0.9,4.4-1.9,6.5-3
							s3.6-1.6,4.3-1.6c0.9,0,1.4,0.4,1.4,1.1c0,0.8-0.9,2.1-2.7,4.1s-3.8,4.1-6,6.3s-4.2,4.3-5.9,6.3s-2.6,3.3-2.6,3.9
							c0.1,1.7,0.7,2.5,1.7,2.5s2.1-0.1,3.3-0.5c1.4-0.3,3-1,5-2.1s3.6-2,5-2.7c0.8-0.5,2.2-1.2,4.4-2.3s4.7-2.3,7.6-3.8
							c2.9-1.4,6-3,9.2-4.6c3.3-1.6,6.3-3,9-4.3s5.1-2.4,7-3.2s3-1.3,3.3-1.3l0.7,0.9c-0.5,1.5-1.4,3.8-3,6.7
							c-1.5,3-3.3,6.2-5.4,9.8c-2.1,3.6-4.3,7.3-6.8,11.2s-4.9,7.5-7.3,10.9c-2.4,3.4-4.5,6.4-6.5,9s-3.6,4.3-4.8,5.2
							c-0.3,0.3-0.8,0.5-1.4,0.5c-0.8,0-2.2-1.3-4.4-3.9c-2.2-2.6-4.6-5.5-7.1-8.8s-4.9-6.4-7.3-9.5c-2.4-3-4-5-4.9-5.9L872.6,184.9
							z M827.2,115.2h12.1l1.6,0.7l0.2,0.2l-0.5,0.5h-13.5l-0.7-0.7L827.2,115.2z M936.9,75.7c0,0.5-0.3,0.8-0.8,1s-1,0.3-1.3,0.3
							h-42c-0.3,0-0.7-0.1-1.3-0.3c-0.5-0.2-0.8-0.6-0.8-1c0.2-0.1,0.4-0.2,0.7-0.2c0.6,0,2.2,0,4.7,0s5.4,0,8.7-0.1
							s6.8-0.1,10.5-0.1s7.2,0,10.4,0.1s5.8,0.1,7.9,0.1C935.7,75.5,936.8,75.6,936.9,75.7z M985.2,131.4c0.6-0.8,1.3-2.3,2.1-4.7
							c0.8-2.4,1.6-5.1,2.4-8.3c0.8-3.2,1.7-6.6,2.7-10.1c1-3.6,2-6.8,3.1-9.8s2.2-5.4,3.3-7.3s2.4-2.8,3.8-2.8c0.6,0,2.3,1,5.1,3
							s5.8,4.1,8.9,6.5c3.1,2.4,5.9,4.6,8.3,6.7s3.6,3.3,3.6,3.6c0,0.8-0.2,1.2-0.6,1.4c-0.4,0.2-0.8,0.4-1.3,0.7
							c-1.5,0.8-4.4,2.2-8.7,4.3c-4.3,2.1-8.7,4.4-13.2,7c-4.6,2.5-8.6,5-12.1,7.4c-3.5,2.4-5.2,4.3-5.2,5.7c0,4.3,1.2,8.4,3.5,12.3
							c2.4,4,5.3,7.6,8.9,11.1c3.6,3.4,7.4,6.7,11.5,9.7s7.9,5.8,11.5,8.3c3.6,2.5,6.5,4.7,8.9,6.6c2.4,1.9,3.5,3.5,3.5,4.9
							c0,0.8-0.5,1.4-1.4,2.1c-2.3,1.8-4.3,3.4-6.2,4.8s-3.5,2.8-5,4.2s-2.9,3.1-4.2,4.9c-1.3,1.8-2.6,4.1-4,6.8
							c-0.2,0.5-0.4,1.1-0.8,2.1c-0.4,0.9-0.8,1.8-1.3,2.7s-1,1.7-1.5,2.5s-1,1.1-1.5,1.1c-1.2,0-2.7-1.5-4.6-4.6
							c-1.8-3-3.8-6.9-5.9-11.6c-2.1-4.7-4.3-10-6.5-15.7c-2.2-5.8-4.3-11.3-6.2-16.5s-3.6-10-5-14.1c-1.4-4.2-2.5-7.1-3.1-8.8
							c-0.2-0.5-0.5-1.4-1.1-2.9c-0.6-1.4-1.1-2.2-1.6-2.2c-2.3,0-3.8,1.1-4.4,3.4c-0.7,2.3-1,4.3-1,5.9v66.8c0,3.5-1.3,6.5-3.8,9
							s-5.5,4.6-9,6.2c-3.5,1.6-7.2,2.8-11.1,3.5c-3.9,0.8-7.2,1.1-9.9,1.1c-0.8,0-1.3-0.2-1.5-0.6c-0.2-0.4-0.5-0.9-0.8-1.5
							c-0.9-2.7-1.5-4.9-1.8-6.6c-0.3-1.7-0.6-3.2-1-4.6c-0.4-1.4-1.1-2.8-2.1-4.3s-2.6-3.5-4.9-5.9c-0.3-0.3-0.8-0.8-1.5-1.6
							s-1-1.4-1-1.8c0-0.8,0.9-1.2,2.6-1.4c1.7-0.1,3.7-0.2,5.8-0.1c2.1,0.1,4.1,0.2,5.9,0.2c1.8,0.1,2.9,0,3.2-0.3
							c0.5-0.6,1-1.7,1.6-3.2s0.9-2.7,0.9-3.4V29c0-1.5,0.8-2.3,2.3-2.3c1.2,0,3.3,0.2,6.2,0.5s6,0.6,9.2,1c3.3,0.4,6.3,0.8,9.2,1.3
							s4.9,0.8,5.9,1.1c0.5,0.9,0.1,1.8-0.9,2.6c-1.1,0.8-1.8,1.6-2.3,2.2c-0.5,0.6-0.8,1.7-1,3.4s-0.4,3.5-0.5,5.5
							s-0.1,3.9-0.1,5.7s0,3.2,0,4.1c0,4.4,0.3,9.9,1,16.4s1.6,13.3,2.7,20.3c1.1,7,2.4,13.7,3.8,20.2c1.4,6.5,2.8,11.7,4.3,15.8
							c0.3,0.9,0.7,1.8,1.1,2.6C983.4,130.3,984.2,130.9,985.2,131.4z M1032.4,75.3c-0.5,1.2-1.4,1.8-3,1.8H979
							c-0.5,0-1-0.1-1.5-0.3c-0.5-0.2-1-0.5-1.3-0.8c0.3-0.5,1.8-0.7,4.4-0.8c2.7-0.1,5.5-0.4,8.5-1s5.8-1.7,8.3-3.4
							c2.5-1.7,3.8-4.3,3.8-8c0-2.6-0.6-5.1-1.9-7.5c-1.3-2.4-2.7-4.7-4.2-7c-1.5-2.2-2.9-4.4-4.2-6.5s-1.9-4.3-1.9-6.4
							c0-1.4,0.5-2.1,1.5-2.3s1.9-0.2,2.9-0.2c2.4,0,5.2,0.2,8.4,0.6c3.2,0.4,6.2,1.1,9.1,2.1c2.9,1,5.3,2.5,7.3,4.4
							c2,2,3,4.6,3,7.8c0,2.4-0.6,4.7-1.7,6.7c-1.1,2.1-1.7,4.3-1.7,6.7c0,1.2,0.7,2.5,2.2,3.8c1.4,1.3,3,2.6,4.8,3.9
							c1.7,1.3,3.4,2.5,4.9,3.5C1031.2,73.4,1032.1,74.4,1032.4,75.3z"/>
						<path class="st16" d="M1058.1,227.1h37.2v-171h24.8v195.2H1058L1058.1,227.1L1058.1,227.1z M1064.5,244.8h49.2V62.7h-12v170.8
							h-37.2V244.8L1064.5,244.8z"/>
					</g>
				</g>
			</g>
		</g>
	</g>
</g>
</svg>
